<?xml version="1.0" encoding="UTF-8" standalone="no"?>
<svg
   version="1.1"
   preserveAspectRatio="none"
   x="0px"
   y="0px"
   width="210"
   height="630"
   viewBox="0 0 210 630"
   id="svg338"
   sodipodi:docname="bt-bonus.svg"
   xml:space="preserve"
   inkscape:export-filename="bt-bonus lovit.svg"
   inkscape:export-xdpi="96"
   inkscape:export-ydpi="96"
   inkscape:version="1.2.2 (732a01da63, 2022-12-09)"
   xmlns:inkscape="http://www.inkscape.org/namespaces/inkscape"
   xmlns:sodipodi="http://sodipodi.sourceforge.net/DTD/sodipodi-0.dtd"
   xmlns="http://www.w3.org/2000/svg"
   xmlns:svg="http://www.w3.org/2000/svg"><sodipodi:namedview
     id="namedview340"
     pagecolor="#ffffff"
     bordercolor="#000000"
     borderopacity="0.25"
     inkscape:showpageshadow="2"
     inkscape:pageopacity="0.0"
     inkscape:pagecheckerboard="0"
     inkscape:deskcolor="#d1d1d1"
     showgrid="false"
     showguides="true"
     inkscape:zoom="2"
     inkscape:cx="38.25"
     inkscape:cy="114.5"
     inkscape:window-width="1366"
     inkscape:window-height="745"
     inkscape:window-x="-8"
     inkscape:window-y="-8"
     inkscape:window-maximized="1"
     inkscape:current-layer="svg338"><sodipodi:guide
       position="-77.268624,607.13479"
       orientation="1,0"
       id="guide1888"
       inkscape:locked="false" /></sodipodi:namedview><defs
     id="defs326"><g
       id="Layer0_0_FILL"><path
         fill="#FFFFFF"
         stroke="none"
         d=" M 48.85 29.9 Q 48.15 29.2 47.2 29.25 L 44.4 29.25 44.4 23.85 Q 44.4 20.45 41.7 17.7 38.8 14.8 34.9 14.75 31 14.75 28.15 17.65 25.4 20.45 25.4 23.85 L 25.4 29.25 22.8 29.25 Q 21.85 29.25 21.15 29.9 20.5 30.55 20.5 31.5 L 20.5 48.8 Q 20.5 49.8 21.15 50.45 21.85 51.1 22.8 51.1 L 47.2 51.1 Q 48.2 51.1 48.85 50.45 49.5 49.8 49.5 48.8 L 49.5 31.6 Q 49.5 30.6 48.85 29.9 M 40.9 23.95 L 40.9 29.35 28.9 29.35 28.9 23.95 Q 28.9 22 30.5 20.3 32.3 18.35 34.9 18.35 37.5 18.35 39.3 20.3 40.9 22 40.9 23.95 Z"
         id="path1628" /></g><path
       id="Duplicate_Items_Folder_Tween_1_0_Layer0_0_1_STROKES"
       stroke="#FFFFFF"
       stroke-width="12"
       stroke-linejoin="round"
       stroke-linecap="round"
       fill="none"
       d=" M -4 4 Q -0.7 4 1.65 6.35 4 8.7 4 12 4 18.65 -0.7 23.3 -5.4 28 -12 28 -21.9 28.1 -28.95 21.1 -35.95 14.1 -36 4.25 -36.05 4.15 -36 4 -36 -9.25 -26.65 -18.6 -17.25 -28 -4 -28 12.55 -28 24.25 -16.25 36 -4.55 36 12 36 31.9 21.95 45.95 7.9 60 -12 60 -35.2 60 -51.6 43.6 -68 27.2 -68 4 -67.95 -22.45 -49.25 -41.2 -30.5 -59.9 -4 -60 10.65 -60 24 -54.35 36.95 -48.85 46.9 -38.9 56.85 -28.95 62.35 -16 68 -2.65 68 12 68 28.3 61.7 43.15 55.65 57.5 44.55 68.6 33.5 79.65 19.15 85.7 4.25 92 -12 92 -29.9 92 -46.25 85.1 -62.05 78.4 -74.25 66.25 -86.4 54.05 -93.1 38.25 -100 21.9 -100 4 -100 -15.5 -92.45 -33.35 -85.2 -50.6 -71.9 -63.85 -58.6 -77.15 -41.4 -84.45 -23.55 -92 -4 -92 17.15 -92 36.45 -83.8 55.15 -75.9 69.55 -61.5 83.9 -47.15 91.8 -28.45 100 -9.15 100 12" /></defs><g
     data-paper-data="{&quot;isPaintingLayer&quot;:true}"
     fill="#ffffff"
     fill-rule="nonzero"
     stroke="none"
     stroke-width="0"
     stroke-linecap="butt"
     stroke-linejoin="miter"
     stroke-miterlimit="10"
     stroke-dasharray="none"
     stroke-dashoffset="0"
     style="mix-blend-mode:normal;fill:#ffffff"
     id="g3136"
     transform="matrix(0.83691592,0.44490525,-0.44490525,0.83691592,-89.749237,-154.21995)"
     inkscape:label="g3136"><rect
       style="fill:#ffffff;fill-opacity:0.985836;stroke:#000000;stroke-width:0;stroke-dasharray:none"
       id="rect2006"
       width="19.909456"
       height="17.695957"
       x="23.304735"
       y="102.07452"
       transform="matrix(1.5500676,0,0,1.5500676,193.78125,20.191622)"
       ry="2.3396933"
       rx="2.3396933" /><rect
       style="fill:#ffffff;fill-opacity:0.985836;stroke:#000000;stroke-width:0;stroke-dasharray:none"
       id="rect2017"
       width="19.981279"
       height="5.1111355"
       x="23.268824"
       y="94.346909"
       transform="matrix(1.5500676,0,0,1.5500676,193.78125,20.191622)"
       rx="1.1500612"
       ry="1.1500612" /><path
       id="rect2019"
       style="fill:#ffffff;fill-opacity:0.985836;stroke:#000000;stroke-width:0;stroke-dasharray:none"
       d="m 252.3627,162.6858 c 0,0 2.99277,-9.70446 0,-12.69723 -3.30531,-3.30532 -10.71795,-3.30532 -14.02326,0 -2.99277,2.99276 0,12.69723 0,12.69723 m 7.01163,-1.74988 c -2.53894,-9.1e-4 -4.59647,-2.05979 -4.59571,-4.59874 -7.6e-4,-2.53894 2.05677,-4.59781 4.59571,-4.59873 2.54012,-7.6e-4 4.59949,2.05861 4.59873,4.59873 7.6e-4,2.54013 -2.05861,4.5995 -4.59873,4.59874 z"
       sodipodi:nodetypes="csscccccc" /><ellipse
       style="fill:#ffffff;fill-opacity:0;stroke:#ffffff;stroke-width:2.25953;stroke-dasharray:none;stroke-opacity:1"
       id="path3123"
       cx="243.76334"
       cy="153.48413"
       rx="4.4598517"
       ry="4.5770192"
       transform="matrix(0.99993348,0.01153377,0.01135701,0.99993551,0,0)" /></g><rect
     style="fill:#000000;fill-opacity:1;stroke:#000000;stroke-width:0;stroke-dasharray:none;stroke-opacity:1"
     id="rect9817"
     width="0.17576699"
     height="0.17576699"
     x="54.31282"
     y="101.11375" /></svg>
