<svg version="1.1" xmlns="http://www.w3.org/2000/svg" xmlns:xlink="http://www.w3.org/1999/xlink" width="121.01419" height="163.86555" viewBox="0,0,121.01419,163.86555"><g transform="translate(-179.49291,-98.06723)"><g data-paper-data="{&quot;isPaintingLayer&quot;:true}" fill-rule="nonzero" stroke="none" stroke-linecap="butt" stroke-linejoin="miter" stroke-miterlimit="10" stroke-dasharray="" stroke-dashoffset="0" style="mix-blend-mode: normal"><g><path d="M216.88352,230.04572c-4.62726,-1.94423 -6.5715,-5.21054 -6.99923,-5.49051c0,0.58327 0.41996,3.19631 -0.10887,2.76859c-5.58382,-4.06733 -8.75909,-16.82944 -9.9023,-23.46315c-3.7214,2.72393 -5.04494,0.6068 -3.66065,-3.68606c0,0 -4.66614,0.27219 -1.69537,-7.6136h2.38751v5.4905c0.16363,1.55427 1.45506,2.74584 3.01744,2.78414h1.16654v0.24886c0.26546,2.50202 2.33058,4.42792 4.84502,4.51839c2.31752,0 4.19176,-2.74526 4.19176,-4.51839v-2.82302c0.47843,1.10811 0.8508,2.25905 1.1121,3.4374c0.96434,5.59938 0.38107,11.82092 1.15876,16.48707c0.5055,8.088 4.50284,11.8598 4.48729,11.8598z" fill="#000000" stroke-width="1"/><path d="M281.30355,200.65591c0.06504,1.45763 0.06393,3.17125 -0.02894,5.26062c-0.15399,3.29489 -4.79704,12.87342 -10.1923,20.111c-3.4654,4.64872 -8.41455,8.39039 -8.80364,8.68674c-0.06623,-1.63919 4.01059,-4.28688 -0.52448,-1.96734c0,0 2.30511,-2.22375 3.0999,-12.37912c0.5004,-4.8341 -0.11185,-10.44168 1.92408,-17.09777c0.7153,-2.21495 1.24093,-4.48673 1.57119,-6.79077l0.31532,6.30154c0.08986,1.79594 2.11159,4.4823 4.47466,4.36405c2.57958,-0.13861 4.61781,-2.23945 4.67832,-4.82205l-0.01182,-0.23631l1.06339,-0.05321c0.97967,-0.06173 1.87689,-0.56939 2.43432,-1.37738z" fill="#000000" stroke-width="1"/><path d="M279.93535,173.06723c-3.12962,0 -5.66667,-3.20863 -5.66667,-7.16667c0,-3.95804 2.53706,-7.16667 5.66667,-7.16667c3.12962,0 5.66667,3.20863 5.66667,7.16667c0,3.95804 -2.53706,7.16667 -5.66667,7.16667z" fill="#000000" stroke-width="0"/><path d="M208.60203,159.90055c0,4.69442 -4.10406,8.5 -9.16667,8.5c-5.06261,0 -9.16667,-3.80558 -9.16667,-8.5c0,-4.69442 4.10406,-8.5 9.16667,-8.5c5.06261,0 9.16667,3.80558 9.16667,8.5z" fill="#000000" stroke-width="0"/><g><path d="M277.10333,163.72827c-0.01267,-1.93285 4.57713,-0.56412 5.03922,0.94023c0.46209,1.50436 -4.93205,43.3096 -6.17004,48.09672c-0.89471,3.45966 -4.90719,2.09045 -5.07019,1.42555c-1.46235,-5.96462 6.20136,-50.40856 6.20099,-50.46251z" data-paper-data="{&quot;index&quot;:null}" fill="#000000" stroke-width="0"/><path d="M291.42209,176.19461c-0.0004,0.05478 -0.00131,0.09173 -0.0021,0.08203c-0.00143,-0.01755 -0.21986,-3.49205 -0.21986,-3.49725c0,-0.0015 0.00511,-0.0027 0.01141,-0.0027c0.01111,0 0.01141,0.00056 0.01371,0.02441c0.00127,0.01343 0.00758,0.11142 0.01398,0.21777c0.00643,0.10635 0.02746,0.45176 0.04674,0.76758c0.06698,1.09705 0.11193,1.85149 0.12892,2.16407c0.0046,0.08501 0.00759,0.18555 0.0072,0.24414z" data-paper-data="{&quot;index&quot;:null}" fill="#ff9100" stroke-width="0.00391"/><path d="M291.22313,172.76875c0,0.0061 -0.00251,0.0079 -0.01131,0.0079c-0.01127,0 -0.01127,-0.00005 -0.01377,-0.03027c-0.00268,-0.03295 -0.13507,-2.14159 -0.13507,-2.15129c0,-0.0041 0.00407,-0.0059 0.01367,-0.0059c0.013,0 0.01367,0.00067 0.01367,0.01356c0,0.00746 0.01755,0.29617 0.03899,0.6416c0.06119,0.98554 0.09382,1.51579 0.09382,1.52439z" data-paper-data="{&quot;index&quot;:null}" fill="#ff9100" stroke-width="0.00391"/><path d="M289.28869,179.19815h-0.07801h-0.07801v-2.03135v-2.03135l0.05957,0.0011l0.05957,0.0011l0.0084,0.07031c0.02533,0.21218 0.03376,0.35406 0.03343,0.56446c-0.0001,0.09561 -0.0013,0.90552 -0.0026,1.7998z" data-paper-data="{&quot;index&quot;:null}" fill="#435f85" stroke-width="0.00391"/><path d="M289.2498,175.12944c0,0.00549 -0.00678,0.0063 -0.05241,0.0063c-0.02882,0 -0.05519,-0.0011 -0.05859,-0.0024c-0.00552,-0.00213 -0.00609,-0.03193 -0.0057,-0.2998l0.00043,-0.29744l0.01503,0.06055c0.0193,0.07776 0.04664,0.20493 0.06383,0.29687c0.01322,0.07067 0.03747,0.22337 0.03747,0.23588z" data-paper-data="{&quot;index&quot;:null}" fill="#435f85" stroke-width="0.00391"/><path d="M289.12489,174.50565c0,0.0035 -0.00074,0.0056 -0.0016,0.0047c-0.00086,-0.0009 -0.11179,-0.22488 -0.2465,-0.49773c-0.24343,-0.49304 -0.28762,-0.58019 -0.36245,-0.71484c-0.15697,-0.28243 -0.34645,-0.56283 -0.52723,-0.7802c-0.14827,-0.17828 -0.27501,-0.31012 -0.47162,-0.49058l-0.01758,-0.01613l0.0635,-0.0001l0.0635,-0.00009l0.13597,0.13574c0.07479,0.07466 0.15887,0.16124 0.18685,0.19239c0.23783,0.26478 0.42868,0.52117 0.60478,0.81248c0.20138,0.33313 0.37606,0.71719 0.4957,1.08987c0.02888,0.08995 0.07665,0.25479 0.07665,0.26449z" data-paper-data="{&quot;index&quot;:null}" fill="#ff9100" stroke-width="0.00391"/><path d="M289.28869,179.19815h-0.07801h-0.07801v-2.03135v-2.03135l0.05957,0.0011l0.05957,0.0011l0.0084,0.07031c0.02533,0.21218 0.03376,0.35406 0.03343,0.56446c-0.0001,0.09561 -0.0013,0.90552 -0.0026,1.7998z" data-paper-data="{&quot;index&quot;:null}" fill="#8b1717" stroke-width="0.00391"/><path d="M289.2498,175.12944c0,0.00549 -0.00678,0.0063 -0.05241,0.0063c-0.02882,0 -0.05519,-0.0011 -0.05859,-0.0024c-0.00552,-0.00213 -0.00609,-0.03193 -0.0057,-0.2998l0.00043,-0.29744l0.01503,0.06055c0.0193,0.07776 0.04664,0.20493 0.06383,0.29687c0.01322,0.07067 0.03747,0.22337 0.03747,0.23588z" data-paper-data="{&quot;index&quot;:null}" fill="#8b1717" stroke-width="0.00391"/><path d="M279.29796,174.79884c0.00002,0.00837 -0.00146,0.0088 -0.03032,0.0088h-0.03034l-0.01676,-0.21386c-0.00922,-0.11763 -0.04209,-0.53115 -0.07304,-0.91895c-0.03096,-0.3878 -0.05678,-0.71331 -0.0574,-0.72337l-0.0011,-0.01828l0.06494,-0.08133c0.28436,-0.35609 0.61958,-0.68713 0.97803,-0.96583c0.91906,-0.71459 2.02563,-1.13866 3.18555,-1.22079c0.12643,-0.00894 0.25612,-0.01383 0.36817,-0.01384c0.05533,0 0.1353,-0.0017 0.17773,-0.0038c0.04243,-0.0021 0.10659,-0.00457 0.14258,-0.0055l0.06543,-0.0017v0.05492v0.05492l-0.13574,-0.0024c-0.2649,-0.00473 -0.57761,0.00754 -0.83301,0.0327c-1.19617,0.11782 -2.18041,0.53328 -3.06946,1.29566c-0.14666,0.12576 -0.21256,0.18864 -0.54151,0.51678l-0.32775,0.32693l0.02815,0.40575c0.04169,0.60081 0.06442,0.91869 0.08627,1.20654c0.01079,0.1418 0.01959,0.2618 0.01959,0.2666z" data-paper-data="{&quot;index&quot;:null}" fill="#ffaa00" stroke-width="0.00391"/><path d="M279.57216,178.24515h-0.03716h-0.03717l-0.0024,-0.02441c-0.0013,-0.01343 -0.00938,-0.12373 -0.01798,-0.24512c-0.03022,-0.42734 -0.13113,-1.77753 -0.16392,-2.19336c-0.00424,-0.05371 -0.01828,-0.23388 -0.0312,-0.40039c-0.01293,-0.1665 -0.02783,-0.35843 -0.03323,-0.42651c-0.0053,-0.06808 -0.0097,-0.12921 -0.0097,-0.13591v-0.01213l0.03019,0.0011l0.03019,0.0011l0.02444,0.31641c0.03557,0.46053 0.0948,1.2039 0.16124,2.02344c0.05082,0.62685 0.07205,0.89862 0.08025,1.02539c0.0012,0.01826 0.0031,0.04156 0.0043,0.05176z" data-paper-data="{&quot;index&quot;:null}" fill="#ffaa00" stroke-width="0.00391"/><path d="M279.71536,181.64153c-0.00065,0.04613 0.00017,0.05869 -0.01899,-0.29102c-0.04465,-0.8151 -0.11049,-1.85075 -0.17972,-2.82717c-0.01066,-0.15094 -0.01946,-0.27527 -0.01946,-0.27637c0,-0.00104 0.01646,-0.0019 0.03657,-0.0019h0.03657l0.0025,0.03223c0.02128,0.2748 0.06425,1.08933 0.08835,1.6748c0.02229,0.54142 0.05567,1.58278 0.05417,1.68946z" data-paper-data="{&quot;index&quot;:null}" fill="#ffaa00" stroke-width="0.00391"/><path d="M279.40929,193.23627c-0.00187,0.00791 -0.00443,0.0088 -0.02544,0.0088c-0.02136,0 -0.02336,-0.0007 -0.02336,-0.0085c0,-0.00467 0.00523,-0.06048 0.01163,-0.12402c0.01613,-0.16015 0.06295,-0.68188 0.11712,-1.30497c0.09339,-1.07428 0.14123,-1.67784 0.20716,-2.61328c0.0112,-0.15903 0.0114,-0.16052 0.0095,-0.07813c-0.00258,0.11271 -0.01177,0.38658 -0.02127,0.63477c-0.03524,0.91941 -0.08246,1.69625 -0.13878,2.2832c-0.0271,0.28247 -0.12696,1.16144 -0.13656,1.20215z" data-paper-data="{&quot;index&quot;:null}" fill="#ffaa00" stroke-width="0.00391"/><path d="M278.72733,196.98041c-0.0038,0.01444 -0.00414,0.01465 -0.02324,0.01465c-0.01068,0 -0.01938,-0.00074 -0.01938,-0.0017c0,-0.00095 0.02267,-0.0928 0.05038,-0.2041c0.28444,-1.14239 0.49729,-2.34275 0.61666,-3.47774l0.0068,-0.06445l0.02441,-0.0012c0.01821,-0.0009 0.02441,0.0001 0.02441,0.004c0,0.01715 -0.04843,0.37734 -0.08785,0.6534c-0.14423,1.01002 -0.31197,1.90776 -0.52006,2.78321c-0.02549,0.10726 -0.06019,0.24867 -0.07212,0.29395z" data-paper-data="{&quot;index&quot;:null}" fill="#ffaa00" stroke-width="0.00391"/><path d="M278.06557,199.18248l-0.02441,0.00006c-0.01342,0 -0.02441,-0.00071 -0.02441,-0.0016c0,-0.00089 0.0195,-0.05758 0.04334,-0.12598c0.22654,-0.64999 0.43347,-1.33007 0.60419,-1.98569l0.01882,-0.07227l0.02068,-0.0012c0.01835,-0.001 0.02047,-0.0004 0.01867,0.0059c-0.00111,0.00388 -0.01793,0.06888 -0.0374,0.14444c-0.15364,0.59642 -0.29997,1.08503 -0.5306,1.77174z" data-paper-data="{&quot;index&quot;:null}" fill="#ffaa00" stroke-width="0.00391"/><path d="M277.69397,201.60744c-0.0015,0.21323 -0.0041,0.38769 -0.0059,0.38769c-0.0018,0 -0.00333,-0.42935 -0.0034,-0.9541c-0.0001,-0.83976 -0.0009,-0.95322 -0.0059,-0.94652c-0.01063,0.01406 -0.00586,-0.00074 0.02782,-0.08636c0.08823,-0.22426 0.19965,-0.52054 0.26966,-0.71704l0.03859,-0.10831l0.02441,-0.00009c0.01342,-0.0001 0.02441,0.001 0.02441,0.0024c0,0.00139 -0.02187,0.07039 -0.0486,0.15332c-0.23889,0.74122 -0.29491,1.05209 -0.31471,1.74649c-0.0022,0.07412 -0.0051,0.30923 -0.0065,0.52246z" data-paper-data="{&quot;index&quot;:null}" fill="#ffaa00" stroke-width="0.00391"/><path d="M278.1447,205.43257h-0.04996h-0.04995l-0.01234,-0.03223c-0.20172,-0.52671 -0.3189,-1.04316 -0.34367,-1.51465c-0.00487,-0.09268 -0.00546,-1.88623 -0.00066,-1.89383c0.0018,-0.00284 0.0044,0.0956 0.0059,0.21875c0.01041,0.87756 0.05253,1.67152 0.11012,2.07547c0.04263,0.29903 0.16713,0.7282 0.31405,1.08261z" data-paper-data="{&quot;index&quot;:null}" fill="#ffaa00" stroke-width="0.00391"/><path d="M279.54017,207.61807c0,0.00111 -0.03509,0.002 -0.07798,0.002h-0.07798l-0.02992,-0.03418c-0.05399,-0.06167 -0.14364,-0.16952 -0.20538,-0.24707c-0.44152,-0.55457 -0.81277,-1.18657 -1.06987,-1.82128l-0.03441,-0.08496h0.04989h0.0499l0.0266,0.06152c0.30594,0.70758 0.78599,1.4584 1.32369,2.0703c0.02501,0.02846 0.04547,0.05261 0.04547,0.05371z" data-paper-data="{&quot;index&quot;:null}" fill="#ffaa00" stroke-width="0.00391"/><path d="M283.17885,209.52226c-0.07575,0.00483 -0.29302,0.0016 -0.38476,-0.0056c-0.42045,-0.03319 -0.80702,-0.12413 -1.21289,-0.2853c-0.329,-0.13065 -0.63711,-0.2942 -0.94922,-0.50388c-0.43002,-0.28889 -0.82448,-0.6363 -1.21634,-1.07127l-0.03255,-0.03613h0.07985h0.07986l0.07561,0.08301c0.0894,0.09815 0.36605,0.37575 0.45498,0.45656c0.38787,0.35245 0.75344,0.61477 1.12109,0.80447c0.4709,0.24297 1.01018,0.40267 1.55469,0.46037c0.42784,0.04534 0.8489,0.02693 1.24034,-0.05424c0.04183,-0.00868 0.07739,-0.01578 0.07899,-0.01578c0.0016,-0.00001 0.0029,0.01284 0.0029,0.02855v0.02856l-0.09082,0.01626c-0.26303,0.0471 -0.50701,0.07585 -0.80175,0.09447z" data-paper-data="{&quot;index&quot;:null}" fill="#ffaa00" stroke-width="0.00391"/><path d="M284.18719,209.38739c-0.05371,0.01167 -0.10164,0.02132 -0.10644,0.02147c-0.00838,0.00025 -0.00884,-0.00121 -0.0088,-0.02806l0.00004,-0.02832l0.08243,-0.01889c0.53364,-0.1223 1.0993,-0.3303 1.57569,-0.57943c0.81259,-0.42494 1.48882,-0.98644 2.07623,-1.72394c0.05486,-0.06888 0.17051,-0.22268 0.21663,-0.28809l0.03099,-0.04394h0.06975c0.05477,0 0.06909,0.0011 0.06679,0.0049c-0.00163,0.00269 -0.01962,0.02862 -0.03999,0.05762c-0.17901,0.25493 -0.36373,0.48234 -0.58064,0.71484c-0.08598,0.09216 -0.26843,0.27249 -0.3593,0.35513c-0.40111,0.36478 -0.84777,0.68115 -1.30859,0.92687c-0.12294,0.06555 -0.16151,0.08517 -0.25976,0.1321c-0.47301,0.22594 -0.94188,0.38634 -1.45508,0.49776z" data-paper-data="{&quot;index&quot;:null}" fill="#ffaa00" stroke-width="0.00391"/><path d="M288.19428,206.69821h-0.06983h-0.06983l0.04089,-0.05957c0.09994,-0.14558 0.21797,-0.33281 0.30967,-0.49121c0.1419,-0.24511 0.23256,-0.42439 0.49144,-0.97185c0.1029,-0.21762 0.18761,-0.39419 0.18823,-0.39229c0.00062,0.00186 -0.00865,0.03665 -0.02061,0.07731c-0.18249,0.62065 -0.45236,1.20303 -0.80763,1.74287z" data-paper-data="{&quot;index&quot;:null}" fill="#435f85" stroke-width="0.00391"/><path d="M289.12487,174.50565c0,0.0035 -0.00074,0.0056 -0.0016,0.0047c-0.00086,-0.0009 -0.11179,-0.22488 -0.2465,-0.49773c-0.24343,-0.49304 -0.28762,-0.58019 -0.36245,-0.71484c-0.15697,-0.28243 -0.34645,-0.56283 -0.52723,-0.7802c-0.14827,-0.17828 -0.27501,-0.31012 -0.47162,-0.49058l-0.01758,-0.01613l0.0635,-0.0001l0.0635,-0.00009l0.13597,0.13574c0.07479,0.07466 0.15887,0.16124 0.18685,0.19239c0.23783,0.26478 0.42868,0.52117 0.60478,0.81248c0.20138,0.33313 0.37606,0.71719 0.4957,1.08987c0.02888,0.08995 0.07665,0.25479 0.07665,0.26449z" data-paper-data="{&quot;index&quot;:null}" fill="#ffaa00" stroke-width="0.00391"/><path d="M287.62055,172.01076h-0.06177h-0.06177l-0.04947,-0.04225c-0.38684,-0.33034 -0.83446,-0.60096 -1.43034,-0.86474c-0.55007,-0.2435 -0.9166,-0.31428 -1.79687,-0.34698c-0.06337,-0.0024 -0.12273,-0.0052 -0.13183,-0.0063l-0.0166,-0.002v-0.05445v-0.05445l0.03223,0.00006c0.05831,0.00011 0.26928,0.00753 0.33301,0.01173c1.05149,0.06913 2.04588,0.44798 2.87182,1.09412c0.08621,0.06744 0.25479,0.21028 0.30192,0.25583z" data-paper-data="{&quot;index&quot;:null}" fill="#ffaa00" stroke-width="0.00391"/><path d="M288.19428,206.69821h-0.06983h-0.06983l0.04089,-0.05957c0.09994,-0.14558 0.21797,-0.33281 0.30967,-0.49121c0.1419,-0.24511 0.23256,-0.42439 0.49144,-0.97185c0.1029,-0.21762 0.18761,-0.39419 0.18823,-0.39229c0.00062,0.00186 -0.00865,0.03665 -0.02061,0.07731c-0.18249,0.62065 -0.45236,1.20303 -0.80763,1.74287z" data-paper-data="{&quot;index&quot;:null}" fill="#8b1717" stroke-width="0.00391"/><path d="M284.00743,209.36514c-0.87677,0.18757 -1.89397,0.05055 -2.74874,-0.37026c-1.53343,-0.7549 -3.11651,-2.88205 -3.43891,-4.62076c-0.06867,-0.37031 -0.12485,-1.4417 -0.12485,-2.38085c0,-1.66385 0.01289,-1.74578 0.50385,-3.20169c0.64611,-1.91604 1.05704,-3.95313 1.33521,-6.61915c0.30649,-2.93766 0.30429,-10.75521 -0.0041,-14.5c-0.1189,-1.44375 -0.24941,-3.10313 -0.29004,-3.6875l-0.07386,-1.0625l0.48322,-0.48631c1.22338,-1.23123 2.63838,-1.75709 4.52133,-1.68028c1.03605,0.04226 1.33302,0.10625 2.04683,0.44107c1.15912,0.5437 1.88482,1.25301 2.44821,2.39296l0.46684,0.94459v15.06898v15.06898l-0.41299,0.8722c-0.9726,2.05402 -2.59192,3.36697 -4.71201,3.82051z" data-paper-data="{&quot;index&quot;:null}" fill="#ffaa00" stroke-width="0.125"/><path d="M286.8413,204.76489l2.71969,-29.03255c0,0 8.24633,2.70558 10.17325,9.57621c1.92692,6.87063 -0.06994,14.52933 -2.47787,17.86248c-2.40793,3.33315 -10.41507,1.59386 -10.41507,1.59386z" data-paper-data="{&quot;index&quot;:null}" fill="#1d1d1d" stroke-width="0"/><path d="M277.98204,191.4731c1.34276,-14.17683 0.98295,-21.87536 3.71107,-24.14577c0.80693,-0.67154 5.07304,-0.2304 5.75185,-0.13783c6.85673,0.93502 7.08197,9.59004 5.40733,21.87078c-1.16347,8.53219 -2.03519,16.20862 -4.7584,19.78642c-1.19642,1.57189 -6.47801,1.42068 -8.57097,1.13529c-6.85673,-0.93502 -2.07707,-12.84773 -1.54086,-18.50888z" data-paper-data="{&quot;index&quot;:null}" fill="#7f2233" stroke-width="0"/><path d="M281.91816,184.79933c0.44589,-4.2209 1.11391,-7.92014 2.79071,-7.74301c1.6768,0.17713 2.77096,4.25204 2.32507,8.47295c-0.44589,4.2209 -2.67594,7.25571 -4.35274,7.07858c-1.6768,-0.17714 -1.20893,-3.58762 -0.76304,-7.80853z" data-paper-data="{&quot;index&quot;:null}" fill="#ffffff" stroke-width="0"/><path d="M289.21974,172.73987c-1.29456,-2.13885 -1.55295,-5.50801 -1.55295,-5.50801c0,0 4.72284,1.10665 5.50586,5.69479c1.29876,5.09905 -0.58277,5.38128 -3.95291,-0.18678z" data-paper-data="{&quot;index&quot;:null}" fill="#ffffff" stroke-width="0"/><path d="M285.63768,202.4254c1.78203,-0.53061 4.79871,1.10228 4.5817,1.64966c-0.10957,0.27638 -0.5868,1.98021 -0.95987,2.7521c-0.36085,0.74663 -1.32878,2.26836 -1.32878,2.26836c0,0 0.04842,-4.96717 -4.8258,-2.32456c-1.66512,0.90277 0.05186,-3.60687 2.53275,-4.34556z" data-paper-data="{&quot;index&quot;:null}" fill="#ffffff" stroke-width="0"/><path d="M290.5501,201.23061c-0.37207,-0.04888 -2.29813,-1.17347 -3.49698,-2.70362c-1.03101,-1.31594 -1.38262,-3.01273 -1.38262,-3.64758c0,-0.90146 0.94481,-3.11495 2.19806,-3.69891c1.1084,-0.51646 3.40331,-1.02266 4.33904,-0.98163c0.70527,0.03092 0.31577,0.41901 0.25149,1.46403c-0.07463,1.21325 -0.13238,0.70059 -0.94585,0.71326c-1.23634,0.01925 -3.486,0.24974 -3.69322,2.41743c-0.27659,2.89341 2.59944,3.30724 3.46049,4.22767c0.20848,0.22285 0.0064,0.4754 -0.04947,0.80003c-0.09667,0.56174 -0.32869,1.45562 -0.68092,1.40935z" data-paper-data="{&quot;index&quot;:null}" fill="#ffffff" stroke-width="0"/><path d="M280.27188,167.45983c0.07509,-1.62505 2.32944,-0.2242 2.49881,1.06529c0.16937,1.28949 -4.30984,36.12806 -5.13523,40.08356c-0.5965,2.85863 -2.56003,1.48888 -2.61411,0.92121c-0.48524,-5.09249 5.24845,-42.02471 5.25054,-42.07007z" data-paper-data="{&quot;index&quot;:null}" fill="#ffffff" stroke-width="0"/></g><g><path d="M202.8967,160.22825c-0.00037,0.05395 7.66334,44.49789 6.20099,50.46251c-0.163,0.6649 -4.17548,2.03411 -5.07019,-1.42555c-1.23799,-4.78712 -6.63213,-46.59236 -6.17004,-48.09672c0.46209,-1.50435 5.05189,-2.87308 5.03922,-0.94023z" data-paper-data="{&quot;index&quot;:null}" fill="#000000" stroke-width="0"/><path d="M188.57792,172.69466c-0.00039,-0.05859 0.0026,-0.15913 0.0072,-0.24414c0.01699,-0.31258 0.06194,-1.06702 0.12892,-2.16407c0.01928,-0.31582 0.04031,-0.66123 0.04674,-0.76758c0.0064,-0.10635 0.01271,-0.20434 0.01398,-0.21777c0.0023,-0.02385 0.0026,-0.02441 0.01371,-0.02441c0.0063,0 0.01141,0.0012 0.01141,0.0027c0,0.0052 -0.21843,3.4797 -0.21986,3.49725c-0.00079,0.0097 -0.0017,-0.02725 -0.0021,-0.08203z" data-paper-data="{&quot;index&quot;:null}" fill="#ff9100" stroke-width="0.00391"/><path d="M188.77688,169.26873c0,-0.0086 0.03263,-0.53885 0.09382,-1.52439c0.02144,-0.34543 0.03899,-0.63414 0.03899,-0.6416c0,-0.01289 0.00067,-0.01356 0.01367,-0.01356c0.0096,0 0.01367,0.0018 0.01367,0.0059c0,0.0097 -0.13239,2.11834 -0.13507,2.15129c-0.0025,0.03022 -0.0025,0.03027 -0.01377,0.03027c-0.0088,0 -0.01131,-0.0018 -0.01131,-0.0079z" data-paper-data="{&quot;index&quot;:null}" fill="#ff9100" stroke-width="0.00391"/><path d="M190.70897,174.07222c-0.0013,-0.89428 -0.0025,-1.70419 -0.0026,-1.7998c-0.00033,-0.2104 0.0081,-0.35228 0.03343,-0.56446l0.0084,-0.07031l0.05957,-0.0011l0.05957,-0.0011v2.03135v2.03135h-0.07801h-0.07801z" data-paper-data="{&quot;index&quot;:null}" fill="#435f85" stroke-width="0.00391"/><path d="M190.75015,171.62939c0,-0.01251 0.02425,-0.16521 0.03747,-0.23588c0.01719,-0.09194 0.04453,-0.21911 0.06383,-0.29687l0.01503,-0.06055l0.00043,0.29744c0.00039,0.26787 -0.00018,0.29767 -0.0057,0.2998c-0.0034,0.0013 -0.02977,0.0024 -0.05859,0.0024c-0.04563,0 -0.05241,-0.00081 -0.05241,-0.0063z" data-paper-data="{&quot;index&quot;:null}" fill="#435f85" stroke-width="0.00391"/><path d="M190.87515,171.00565c0,-0.0097 0.04777,-0.17454 0.07665,-0.26449c0.11964,-0.37268 0.29432,-0.75674 0.4957,-1.08987c0.1761,-0.29131 0.36695,-0.5477 0.60478,-0.81248c0.02798,-0.03115 0.11206,-0.11773 0.18685,-0.19239l0.13597,-0.13574l0.0635,0.00009l0.0635,0.0001l-0.01758,0.01613c-0.19661,0.18046 -0.32335,0.3123 -0.47162,0.49058c-0.18078,0.21737 -0.37026,0.49777 -0.52723,0.7802c-0.07483,0.13465 -0.11902,0.2218 -0.36245,0.71484c-0.13471,0.27285 -0.24564,0.49683 -0.2465,0.49773c-0.00086,0.0009 -0.0016,-0.0012 -0.0016,-0.0047z" data-paper-data="{&quot;index&quot;:null}" fill="#ff9100" stroke-width="0.00391"/><path d="M190.70897,174.07222c-0.0013,-0.89428 -0.0025,-1.70419 -0.0026,-1.7998c-0.00033,-0.2104 0.0081,-0.35228 0.03343,-0.56446l0.0084,-0.07031l0.05957,-0.0011l0.05957,-0.0011v2.03135v2.03135h-0.07801h-0.07801z" data-paper-data="{&quot;index&quot;:null}" fill="#8b1717" stroke-width="0.00391"/><path d="M190.75015,171.62939c0,-0.01251 0.02425,-0.16521 0.03747,-0.23588c0.01719,-0.09194 0.04453,-0.21911 0.06383,-0.29687l0.01503,-0.06055l0.00043,0.29744c0.00039,0.26787 -0.00018,0.29767 -0.0057,0.2998c-0.0034,0.0013 -0.02977,0.0024 -0.05859,0.0024c-0.04563,0 -0.05241,-0.00081 -0.05241,-0.0063z" data-paper-data="{&quot;index&quot;:null}" fill="#8b1717" stroke-width="0.00391"/><path d="M200.70203,171.29879c0,-0.0048 0.0088,-0.1248 0.01959,-0.2666c0.02185,-0.28785 0.04458,-0.60573 0.08627,-1.20654l0.02815,-0.40575l-0.32775,-0.32693c-0.32895,-0.32814 -0.39485,-0.39102 -0.54151,-0.51678c-0.88905,-0.76238 -1.87329,-1.17784 -3.06946,-1.29566c-0.2554,-0.02516 -0.56811,-0.03743 -0.83301,-0.0327l-0.13574,0.0024v-0.05492v-0.05492l0.06543,0.0017c0.03599,0.00093 0.10015,0.0034 0.14258,0.0055c0.04243,0.0021 0.1224,0.0038 0.17773,0.0038c0.11205,0.00001 0.24174,0.0049 0.36817,0.01384c1.15992,0.08213 2.26649,0.5062 3.18555,1.22079c0.35845,0.2787 0.69367,0.60974 0.97803,0.96583l0.06494,0.08133l-0.0011,0.01828c-0.00062,0.01006 -0.02644,0.33557 -0.0574,0.72337c-0.03095,0.3878 -0.06382,0.80132 -0.07304,0.91895l-0.01676,0.21386h-0.03034c-0.02886,0 -0.03034,-0.00043 -0.03032,-0.0088z" data-paper-data="{&quot;index&quot;:null}" fill="#ffaa00" stroke-width="0.00391"/><path d="M200.43,174.72652c0.0012,-0.0102 0.0031,-0.0335 0.0043,-0.05176c0.0082,-0.12677 0.02943,-0.39854 0.08025,-1.02539c0.06644,-0.81954 0.12567,-1.56291 0.16124,-2.02344l0.02444,-0.31641l0.03019,-0.0011l0.03019,-0.0011v0.01213c0,0.0067 -0.0044,0.06783 -0.0097,0.13591c-0.0054,0.06808 -0.0203,0.26001 -0.03323,0.42651c-0.01292,0.16651 -0.02696,0.34668 -0.0312,0.40039c-0.03279,0.41583 -0.1337,1.76602 -0.16392,2.19336c-0.0086,0.12139 -0.01668,0.23169 -0.01798,0.24512l-0.0024,0.02441h-0.03717h-0.03716z" data-paper-data="{&quot;index&quot;:null}" fill="#ffaa00" stroke-width="0.00391"/><path d="M200.28466,178.14156c-0.0015,-0.10668 0.03188,-1.14804 0.05417,-1.68946c0.0241,-0.58547 0.06707,-1.4 0.08835,-1.6748l0.0025,-0.03223h0.03657c0.02011,0 0.03657,0.00086 0.03657,0.0019c0,0.0011 -0.0088,0.12543 -0.01946,0.27637c-0.06923,0.97642 -0.13507,2.01207 -0.17972,2.82717c-0.01916,0.34971 -0.01834,0.33715 -0.01899,0.29102z" data-paper-data="{&quot;index&quot;:null}" fill="#ffaa00" stroke-width="0.00391"/><path d="M200.59072,189.73629c-0.0096,-0.04071 -0.10946,-0.91968 -0.13656,-1.20215c-0.05632,-0.58695 -0.10354,-1.36379 -0.13878,-2.2832c-0.0095,-0.24819 -0.01869,-0.52206 -0.02127,-0.63477c-0.0019,-0.08239 -0.0017,-0.0809 0.0095,0.07813c0.06593,0.93544 0.11377,1.539 0.20716,2.61328c0.05417,0.62309 0.10099,1.14482 0.11712,1.30497c0.0064,0.06354 0.01163,0.11935 0.01163,0.12402c0,0.0078 -0.002,0.0085 -0.02336,0.0085c-0.02101,0 -0.02357,-0.00089 -0.02544,-0.0088z" data-paper-data="{&quot;index&quot;:null}" fill="#ffaa00" stroke-width="0.00391"/><path d="M201.27267,193.48043c-0.01193,-0.04528 -0.04663,-0.18669 -0.07212,-0.29395c-0.20809,-0.87545 -0.37583,-1.77319 -0.52006,-2.78321c-0.03942,-0.27606 -0.08785,-0.63625 -0.08785,-0.6534c0,-0.0039 0.0062,-0.0049 0.02441,-0.004l0.02441,0.0012l0.0068,0.06445c0.11937,1.13499 0.33222,2.33535 0.61666,3.47774c0.02771,0.1113 0.05038,0.20315 0.05038,0.2041c0,0.00096 -0.0087,0.0017 -0.01938,0.0017c-0.0191,0 -0.01944,-0.00021 -0.02324,-0.01465z" data-paper-data="{&quot;index&quot;:null}" fill="#ffaa00" stroke-width="0.00391"/><path d="M201.84556,195.41788c-0.23063,-0.68671 -0.37696,-1.17532 -0.5306,-1.77174c-0.01947,-0.07556 -0.03629,-0.14056 -0.0374,-0.14444c-0.0018,-0.0063 0.00032,-0.0069 0.01867,-0.0059l0.02068,0.0012l0.01882,0.07227c0.17072,0.65562 0.37765,1.3357 0.60419,1.98569c0.02384,0.0684 0.04334,0.12509 0.04334,0.12598c0,0.00089 -0.01099,0.0016 -0.02441,0.0016l-0.02441,-0.00006z" data-paper-data="{&quot;index&quot;:null}" fill="#ffaa00" stroke-width="0.00391"/><path d="M202.30616,198.10737c-0.0014,-0.21323 -0.0043,-0.44834 -0.0065,-0.52246c-0.0198,-0.6944 -0.07582,-1.00527 -0.31471,-1.74649c-0.02673,-0.08293 -0.0486,-0.15193 -0.0486,-0.15332c0,-0.0014 0.01099,-0.0025 0.02441,-0.0024l0.02441,0.00009l0.03859,0.10831c0.07001,0.1965 0.18143,0.49278 0.26966,0.71704c0.03368,0.08562 0.03845,0.10042 0.02782,0.08636c-0.005,-0.0067 -0.0058,0.10676 -0.0059,0.94652c-0.00007,0.52475 -0.0016,0.9541 -0.0034,0.9541c-0.0018,0 -0.0044,-0.17446 -0.0059,-0.38769z" data-paper-data="{&quot;index&quot;:null}" fill="#ffaa00" stroke-width="0.00391"/><path d="M201.88182,201.8687c0.14692,-0.35441 0.27142,-0.78358 0.31405,-1.08261c0.05759,-0.40395 0.09971,-1.19791 0.11012,-2.07547c0.0015,-0.12315 0.0041,-0.22159 0.0059,-0.21875c0.0048,0.0076 0.00421,1.80115 -0.00066,1.89383c-0.02477,0.47149 -0.14195,0.98794 -0.34367,1.51465l-0.01234,0.03223h-0.04995h-0.04996z" data-paper-data="{&quot;index&quot;:null}" fill="#ffaa00" stroke-width="0.00391"/><path d="M200.45982,204.11811c0,-0.0011 0.02046,-0.02525 0.04547,-0.05371c0.5377,-0.6119 1.01775,-1.36272 1.32369,-2.0703l0.0266,-0.06152h0.0499h0.04989l-0.03441,0.08496c-0.2571,0.63471 -0.62835,1.26671 -1.06987,1.82128c-0.06174,0.07755 -0.15139,0.1854 -0.20538,0.24707l-0.02992,0.03418h-0.07798c-0.04289,0 -0.07798,-0.00089 -0.07798,-0.002z" data-paper-data="{&quot;index&quot;:null}" fill="#ffaa00" stroke-width="0.00391"/><path d="M196.82118,206.02231c-0.29474,-0.01862 -0.53872,-0.04737 -0.80175,-0.09447l-0.09082,-0.01626v-0.02856c0,-0.01571 0.0013,-0.02856 0.0029,-0.02855c0.0016,0 0.03716,0.0071 0.07899,0.01578c0.39144,0.08117 0.8125,0.09958 1.24034,0.05424c0.54451,-0.0577 1.08379,-0.2174 1.55469,-0.46037c0.36765,-0.1897 0.73322,-0.45202 1.12109,-0.80447c0.08893,-0.08081 0.36558,-0.35841 0.45498,-0.45656l0.07561,-0.08301h0.07986h0.07985l-0.03255,0.03613c-0.39186,0.43497 -0.78632,0.78238 -1.21634,1.07127c-0.31211,0.20968 -0.62022,0.37323 -0.94922,0.50388c-0.40587,0.16117 -0.79244,0.25211 -1.21289,0.2853c-0.09174,0.0072 -0.30901,0.01043 -0.38476,0.0056z" data-paper-data="{&quot;index&quot;:null}" fill="#ffaa00" stroke-width="0.00391"/><path d="M195.81287,205.88741c-0.5132,-0.11142 -0.98207,-0.27182 -1.45508,-0.49776c-0.09825,-0.04693 -0.13682,-0.06655 -0.25976,-0.1321c-0.46082,-0.24572 -0.90748,-0.56209 -1.30859,-0.92687c-0.09087,-0.08264 -0.27332,-0.26297 -0.3593,-0.35513c-0.21691,-0.2325 -0.40163,-0.45991 -0.58064,-0.71484c-0.02037,-0.029 -0.03836,-0.05493 -0.03999,-0.05762c-0.0023,-0.0038 0.01202,-0.0049 0.06679,-0.0049h0.06975l0.03099,0.04394c0.04612,0.06541 0.16177,0.21921 0.21663,0.28809c0.58741,0.7375 1.26364,1.299 2.07623,1.72394c0.47639,0.24913 1.04205,0.45713 1.57569,0.57943l0.08243,0.01889l0.00004,0.02832c0.00004,0.02685 -0.00042,0.02831 -0.0088,0.02806c-0.0048,-0.00015 -0.05273,-0.0098 -0.10644,-0.02147z" data-paper-data="{&quot;index&quot;:null}" fill="#ffaa00" stroke-width="0.00391"/><path d="M191.74339,203.10347c-0.35527,-0.53984 -0.62514,-1.12222 -0.80763,-1.74287c-0.01196,-0.04066 -0.02123,-0.07545 -0.02061,-0.07731c0.00062,-0.0019 0.08533,0.17467 0.18823,0.39229c0.25888,0.54746 0.34954,0.72674 0.49144,0.97185c0.0917,0.1584 0.20973,0.34563 0.30967,0.49121l0.04089,0.05957h-0.06983h-0.06983z" data-paper-data="{&quot;index&quot;:null}" fill="#435f85" stroke-width="0.00391"/><path d="M190.87516,171.00565c0,-0.0097 0.04777,-0.17454 0.07665,-0.26449c0.11964,-0.37268 0.29432,-0.75674 0.4957,-1.08987c0.1761,-0.29131 0.36695,-0.5477 0.60478,-0.81248c0.02798,-0.03115 0.11206,-0.11773 0.18685,-0.19239l0.13597,-0.13574l0.0635,0.00009l0.0635,0.0001l-0.01758,0.01613c-0.19661,0.18046 -0.32335,0.3123 -0.47162,0.49058c-0.18078,0.21737 -0.37026,0.49777 -0.52723,0.7802c-0.07483,0.13465 -0.11902,0.2218 -0.36245,0.71484c-0.13471,0.27285 -0.24564,0.49683 -0.2465,0.49773c-0.00086,0.0009 -0.0016,-0.0012 -0.0016,-0.0047z" data-paper-data="{&quot;index&quot;:null}" fill="#ffaa00" stroke-width="0.00391"/><path d="M192.38913,168.50133c0.04713,-0.04555 0.21571,-0.18839 0.30192,-0.25583c0.82594,-0.64614 1.82033,-1.02499 2.87182,-1.09412c0.06373,-0.0042 0.2747,-0.01162 0.33301,-0.01173l0.03223,-0.00006v0.05445v0.05445l-0.0166,0.002c-0.0091,0.0011 -0.06846,0.0039 -0.13183,0.0063c-0.88027,0.0327 -1.2468,0.10348 -1.79687,0.34698c-0.59588,0.26378 -1.0435,0.5344 -1.43034,0.86474l-0.04947,0.04225h-0.06177h-0.06177z" data-paper-data="{&quot;index&quot;:null}" fill="#ffaa00" stroke-width="0.00391"/><path d="M191.74339,203.10347c-0.35527,-0.53984 -0.62514,-1.12222 -0.80763,-1.74287c-0.01196,-0.04066 -0.02123,-0.07545 -0.02061,-0.07731c0.00062,-0.0019 0.08533,0.17467 0.18823,0.39229c0.25888,0.54746 0.34954,0.72674 0.49144,0.97185c0.0917,0.1584 0.20973,0.34563 0.30967,0.49121l0.04089,0.05957h-0.06983h-0.06983z" data-paper-data="{&quot;index&quot;:null}" fill="#8b1717" stroke-width="0.00391"/><path d="M195.99259,205.86514c-2.12009,-0.45354 -3.73941,-1.76649 -4.71201,-3.82051l-0.41299,-0.8722v-15.06898v-15.06898l0.46684,-0.94459c0.56339,-1.13995 1.28909,-1.84926 2.44821,-2.39296c0.71381,-0.33482 1.01078,-0.39881 2.04683,-0.44107c1.88295,-0.07681 3.29795,0.44905 4.52133,1.68028l0.48322,0.48631l-0.07386,1.0625c-0.04063,0.58437 -0.17114,2.24375 -0.29004,3.6875c-0.30839,3.74479 -0.31059,11.56234 -0.0041,14.5c0.27817,2.66602 0.6891,4.70311 1.33521,6.61915c0.49096,1.45591 0.50385,1.53784 0.50385,3.20169c0,0.93915 -0.05618,2.01054 -0.12485,2.38085c-0.3224,1.73871 -1.90548,3.86586 -3.43891,4.62076c-0.85477,0.42081 -1.87197,0.55783 -2.74874,0.37026z" data-paper-data="{&quot;index&quot;:null}" fill="#ffaa00" stroke-width="0.125"/><path d="M182.74363,199.67102c-2.40793,-3.33315 -4.40479,-10.99185 -2.47787,-17.86248c1.92692,-6.87063 10.17325,-9.57621 10.17325,-9.57621l2.71969,29.03255c0,0 -8.00714,1.73929 -10.41507,-1.59386z" data-paper-data="{&quot;index&quot;:null}" fill="#1d1d1d" stroke-width="0"/><path d="M202.01795,187.97311c0.53621,5.66115 5.31587,17.57386 -1.54086,18.50888c-2.09296,0.28539 -7.37455,0.4366 -8.57097,-1.13529c-2.72321,-3.5778 -3.59493,-11.25423 -4.7584,-19.78642c-1.67464,-12.28074 -1.4494,-20.93576 5.40733,-21.87078c0.67881,-0.09257 4.94492,-0.53371 5.75185,0.13783c2.72812,2.27041 2.36831,9.96894 3.71107,24.14577z" data-paper-data="{&quot;index&quot;:null}" fill="#7f2233" stroke-width="0"/><path d="M198.08185,181.29933c0.44589,4.22091 0.91376,7.63139 -0.76304,7.80853c-1.6768,0.17713 -3.90685,-2.85768 -4.35274,-7.07858c-0.44589,-4.22091 0.64827,-8.29582 2.32507,-8.47295c1.6768,-0.17713 2.34482,3.52211 2.79071,7.74301z" data-paper-data="{&quot;index&quot;:null}" fill="#ffffff" stroke-width="0"/><path d="M186.82736,169.42666c0.78302,-4.58814 5.50586,-5.69479 5.50586,-5.69479c0,0 -0.25839,3.36916 -1.55295,5.50801c-3.37014,5.56806 -5.25167,5.28583 -3.95291,0.18678z" data-paper-data="{&quot;index&quot;:null}" fill="#ffffff" stroke-width="0"/><path d="M196.89507,203.27096c-4.87422,-2.64261 -4.8258,2.32456 -4.8258,2.32456c0,0 -0.96793,-1.52173 -1.32878,-2.26836c-0.37307,-0.77189 -0.8503,-2.47572 -0.95987,-2.7521c-0.21701,-0.54738 2.79967,-2.18027 4.5817,-1.64966c2.48089,0.73869 4.19787,5.24833 2.53275,4.34556z" data-paper-data="{&quot;index&quot;:null}" fill="#ffffff" stroke-width="0"/><path d="M189.44988,197.73064c-0.35223,0.04627 -0.58425,-0.84761 -0.68092,-1.40935c-0.05587,-0.32463 -0.25795,-0.57718 -0.04947,-0.80003c0.86105,-0.92043 3.73708,-1.33426 3.46049,-4.22767c-0.20722,-2.16769 -2.45688,-2.39818 -3.69322,-2.41743c-0.81347,-0.01267 -0.87122,0.49999 -0.94585,-0.71326c-0.06428,-1.04502 -0.45378,-1.43311 0.25149,-1.46403c0.93573,-0.04103 3.23064,0.46517 4.33904,0.98163c1.25325,0.58396 2.19806,2.79745 2.19806,3.69891c0,0.63485 -0.35161,2.33164 -1.38262,3.64758c-1.19885,1.53015 -3.12491,2.65474 -3.49698,2.70362z" data-paper-data="{&quot;index&quot;:null}" fill="#ffffff" stroke-width="0"/><path d="M199.72812,163.95981c0.00049,0.01068 0.31916,2.06907 0.7997,5.27624c1.55901,10.40493 4.82175,32.90119 4.45084,36.79383c-0.05408,0.56767 -2.01761,1.93742 -2.61411,-0.92121c-0.82539,-3.9555 -5.3046,-38.79407 -5.13523,-40.08356c0.16937,-1.28949 2.42372,-2.69034 2.49881,-1.06529z" data-paper-data="{&quot;index&quot;:null}" fill="#ffffff" stroke-width="0"/></g><path d="M248.26869,107.06723c0,-4.97056 4.02944,-9 9,-9c4.97056,0 9,4.02944 9,9c0,4.97056 -4.02944,9 -9,9c-4.97056,0 -9,-4.02944 -9,-9z" fill="#000000" stroke-width="0"/><path d="M263.26869,111.56722c0,-5.98309 4.85025,-10.83333 10.83333,-10.83333c5.98309,0 10.83333,4.85025 10.83333,10.83333c0,5.98309 -4.85025,10.83333 -10.83333,10.83333c-5.98309,0 -10.83333,-4.85025 -10.83333,-10.83333z" fill="#000000" stroke-width="0"/><path d="M271.26869,124.56723c0,-5.98309 4.85025,-10.83333 10.83334,-10.83333c5.98309,0 10.83333,4.85025 10.83333,10.83333c0,5.98309 -4.85024,10.83334 -10.83333,10.83334c-5.98309,0 -10.83334,-4.85025 -10.83334,-10.83334z" fill="#000000" stroke-width="0"/><path d="M275.19819,153.7726c0,0 0,31.94 -1,40.48c0,0 0.29,3.32 -2.71,11.46c-3.03,8.3 -2.58,15.44 -3.52,21.53c-1.65,12.81 -4.71,15.48 -4.71,15.48c-4.04,4.27 -6.92,7.58 -9.4,9.8c-2.48,2.22 -9.57,9.41 -14.71,9.41c-4.9,0.03 -9.67,-3.75 -17,-12.41c-4.01,-4.72 -3.3,-4 -6.48,-7c0,0 -5.14,-4.85 -5.79,-15.25c-0.98,-6.03 -0.25,-14.01 -1.49,-21.2c-0.55,-3.2 -2.63,-5.79 -3.16,-11.74c-0.6,-6.6 -2.63,-30.61 -1.68,-42.42c6.32151,-0.97704 19.72894,-15.64212 37.44211,-15.55057c17.71317,0.09155 34.18642,16.84161 34.20789,17.41057z" fill="#dddddd" stroke-width="1"/><path d="M277.60202,135.56722c0,-5.98309 4.85025,-10.83333 10.83334,-10.83333c5.98309,0 10.83333,4.85025 10.83333,10.83333c0,5.98309 -4.85024,10.83334 -10.83333,10.83334c-5.98309,0 -10.83334,-4.85025 -10.83334,-10.83334z" fill="#000000" stroke-width="0"/><path d="M214.26869,114.23389c0,-5.98308 4.85024,-10.83333 10.83333,-10.83333c5.98309,0 10.83333,4.85025 10.83333,10.83333c0,5.98309 -4.85024,10.83334 -10.83333,10.83334c-5.98309,0 -10.83333,-4.85025 -10.83333,-10.83334z" fill="#000000" stroke-width="0"/><path d="M197.26869,127.56722c0,-5.98309 4.85025,-10.83334 10.83334,-10.83334c5.98309,0 10.83333,4.85025 10.83333,10.83334c0,5.98309 -4.85024,10.83334 -10.83333,10.83334c-5.98309,0 -10.83334,-4.85025 -10.83334,-10.83334z" fill="#000000" stroke-width="0"/><path d="M192.60202,139.90055c0,-5.98308 4.85025,-10.83333 10.83334,-10.83333c5.98309,0 10.83333,4.85025 10.83333,10.83333c0,5.98308 -4.85024,10.83334 -10.83333,10.83334c-5.98309,0 -10.83334,-4.85025 -10.83334,-10.83334z" fill="#000000" stroke-width="0"/><path d="M186.2687,148.56723c0,-5.98308 4.85025,-10.83334 10.83334,-10.83334c5.98309,0 10.83333,4.85025 10.83333,10.83334c0,5.98308 -4.85024,10.83334 -10.83333,10.83334c-5.98309,0 -10.83334,-4.85025 -10.83334,-10.83334z" fill="#000000" stroke-width="0"/><path d="M226.26869,160.90055c0,-5.98308 4.85025,-10.83334 10.83334,-10.83334c5.98309,0 10.83333,4.85025 10.83333,10.83334c0,5.98308 -4.85024,10.83333 -10.83333,10.83333c-5.98309,0 -10.83334,-4.85025 -10.83334,-10.83333z" fill="#000000" stroke-width="0"/><path d="M240.93536,162.56723c0,-5.98308 4.85024,-10.83334 10.83334,-10.83334c5.98309,0 10.83333,4.85025 10.83333,10.83334c0,5.98308 -4.85024,10.83334 -10.83333,10.83334c-5.98309,0 -10.83334,-4.85025 -10.83334,-10.83334z" fill="#000000" stroke-width="0"/><path d="M260.93535,163.90055c0,-5.98308 4.85025,-10.83334 10.83334,-10.83334c5.98309,0 10.83333,4.85025 10.83333,10.83334c0,5.98308 -4.85024,10.83334 -10.83333,10.83334c-5.98309,0 -10.83334,-4.85025 -10.83334,-10.83334z" fill="#000000" stroke-width="0"/><path d="M269.60202,151.23388c0,-5.98308 4.85024,-10.83334 10.83333,-10.83334c5.98309,0 10.83333,4.85025 10.83333,10.83334c0,5.98308 -4.85024,10.83334 -10.83333,10.83334c-5.98309,0 -10.83333,-4.85025 -10.83333,-10.83334z" fill="#000000" stroke-width="0"/><path d="M198.39272,147.2876l13.5607,-21.00255l37.52456,24.22846l-13.5607,21.00255c0,0 -11.38936,-9.56898 -17.47681,-13.49946c-6.40462,-4.13527 -20.04776,-10.729 -20.04776,-10.729z" fill="#000000" stroke-width="0"/><path d="M219.26869,136.40055c0,-14.3594 14.17765,-26 31.66667,-26c17.48902,0 31.66667,11.6406 31.66667,26c0,14.3594 -14.17765,26 -31.66667,26c-17.48902,0 -31.66667,-11.6406 -31.66667,-26z" fill="#000000" stroke-width="0"/><path d="M219.43536,134.7339c-3.95804,0 -7.16667,-3.65634 -7.16667,-8.16667c0,-4.51033 3.20863,-8.16667 7.16667,-8.16667c3.95804,0 7.16667,3.65634 7.16667,8.16667c0,4.51033 -3.20863,8.16667 -7.16667,8.16667z" fill="#000000" stroke-width="0"/><path d="M214.43536,125.06723c-3.40576,0 -6.16667,-2.53706 -6.16667,-5.66667c0,-3.12962 2.76091,-5.66667 6.16667,-5.66667c3.40576,0 6.16667,2.53706 6.16667,5.66667c0,3.12962 -2.76091,5.66667 -6.16667,5.66667z" fill="#000000" stroke-width="0"/><path d="M243.51115,130.60359c-7.10431,2.43781 -13.64361,-1.19868 -14.60594,-8.12232c-0.96234,-6.92364 4.01672,-14.5126 11.12102,-16.95041c7.10431,-2.43781 13.64361,1.19868 14.60594,8.12232c0.96234,6.92364 -4.01672,14.5126 -11.12102,16.95041z" fill="#000000" stroke-width="0"/></g></g></g></svg>