<?xml version="1.0" encoding="UTF-8" standalone="no"?>
<!-- Generator: Adobe Illustrator 24.1.0, SVG Export Plug-In . SVG Version: 6.00 Build 0)  -->

<svg
   version="1.1"
   id="png"
   x="0px"
   y="0px"
   viewBox="0 0 370 80"
   style="enable-background:new 0 0 370 80;"
   xml:space="preserve"
   sodipodi:docname="title.svg"
   inkscape:version="1.2.2 (732a01da63, 2022-12-09)"
   xmlns:inkscape="http://www.inkscape.org/namespaces/inkscape"
   xmlns:sodipodi="http://sodipodi.sourceforge.net/DTD/sodipodi-0.dtd"
   xmlns="http://www.w3.org/2000/svg"
   xmlns:svg="http://www.w3.org/2000/svg"><defs
   id="defs31" /><sodipodi:namedview
   id="namedview29"
   pagecolor="#ffffff"
   bordercolor="#000000"
   borderopacity="0.25"
   inkscape:showpageshadow="2"
   inkscape:pageopacity="0.0"
   inkscape:pagecheckerboard="0"
   inkscape:deskcolor="#d1d1d1"
   showgrid="false"
   inkscape:zoom="1.1380597"
   inkscape:cx="88.747541"
   inkscape:cy="108.95738"
   inkscape:window-width="1366"
   inkscape:window-height="745"
   inkscape:window-x="-8"
   inkscape:window-y="-8"
   inkscape:window-maximized="1"
   inkscape:current-layer="text354" />
<style
   type="text/css"
   id="style2">
	.st0{fill:#EEEEEE;}
	.st1{fill:#999999;}
	.st2{fill:#555555;}
</style>
<path
   class="st0"
   d="m 20.8,6.3 c 0.3,-1.4 1.6,-2.4 3,-2.3 h 3 c 0.7,0 1.4,0.3 1.8,0.9 0.4,0.7 0.5,1.5 0.2,2.3 L 11.4,76 c -0.3,1.4 -1.6,2.4 -3.1,2.3 h -3 C 4.6,78.3 3.9,78 3.5,77.4 3.1,76.7 3,75.9 3.2,75.2 Z"
   id="path4"
   style="display:none" />
<path
   class="st0"
   d="M 38.4,55.1 49.1,37.4 c 1.8,-3.2 4.2,-6 7,-8.4 2.4,-1.9 4.4,-2.8 6.1,-2.8 h 2.2 c 0.9,0 1.8,0.1 2.6,0.5 0.8,0.6 1.3,1.5 1.5,2.5 0.4,1.3 0.2,3.3 -0.6,5.8 L 56.4,76.8 c -0.1,0.8 -0.8,1.5 -1.7,1.4 h -5.4 c -1,0 -1.3,-0.8 -0.8,-2.4 L 59.3,40.6 c 0.4,-1.2 0.7,-2.4 0.8,-3.6 0,-0.6 -0.2,-0.9 -0.7,-0.9 -0.7,0.1 -1.3,0.4 -1.7,0.9 -1,1 -1.9,2.2 -2.6,3.4 -1.3,1.9 -2.9,4.3 -4.7,7.3 -1.8,3 -4.1,6.6 -7,11 -5.3,8.1 -9.1,14.1 -11.4,18.2 -0.5,0.9 -1.5,1.4 -2.6,1.4 h -3 C 26,78.3 25.6,78 25.3,77.5 25,76.9 25,76.3 25.2,75.7 L 37.7,29 c 0.3,-1.8 1.1,-2.7 2.1,-2.7 h 4.4 c 1.7,0 2.3,1 1.7,3 z"
   id="path6"
   style="display:none" />
<path
   class="st0"
   d="m 102,31.9 c 1.1,1.2 1.2,2.2 0.4,3.2 l -1.7,2 c -1.2,1.3 -2.2,1.5 -3.1,0.5 l -1.1,-1.2 c -2.5,-2.5 -4.4,-3.6 -5.9,-3.3 -2.5,0.5 -5.1,3.1 -7.8,7.9 -2.7,4.6 -4.7,9.6 -5.9,14.8 -1.2,5.1 -1.5,9.3 -0.9,12.7 0.3,1 1,1.8 1.9,2.3 0.7,0.6 1.7,0.9 2.6,0.8 2.6,-1.6 5,-3.7 6.9,-6.2 0.8,-1 1.9,-1.1 3.3,-0.2 l 1.6,1 c 2.2,1.3 0.3,4.4 -5.6,9.1 -2.4,2.1 -4.3,3.3 -5.7,3.7 -1.3,0.4 -3.4,-0.1 -6.2,-1.5 -2.8,-1.4 -4.5,-2.8 -5.1,-4.2 -1.9,-4.2 -1.9,-10.1 -0.1,-17.8 1.8,-7.7 4.1,-13.6 6.8,-17.7 2.2,-3.5 4.8,-6.6 7.9,-9.3 2.3,-2 5.3,-3 8.3,-2.8 3,0.4 6.1,2.4 9.4,6.2"
   id="path8"
   style="display:none" />
<path
   class="st0"
   d="m 116.5,39.9 c 1.8,-3.1 3.8,-6 6,-8.8 1.2,-1.6 2.5,-3.1 4.1,-4.4 1.4,-0.7 2.9,-1 4.5,-0.9 h 1 c 2,0 2.7,0.8 2.1,2.3 -0.6,1.2 -1.5,2.2 -2.5,3 -2,1.9 -3.8,4 -5.4,6.2 -2.3,2.9 -3.4,4.8 -3.4,5.7 0.1,2 1.1,3.8 2.6,5 0.4,0.2 0.5,0.7 0.3,1.1 -0.2,0.4 -0.6,0.7 -1.1,0.8 l -3.9,0.7 c -0.9,0.2 -1.8,0.1 -2.5,-0.3 -0.6,-0.4 -1.6,-2 -3,-4.7 l -8,30.4 c -0.3,1.4 -1.7,2.4 -3.1,2.2 h -3 c -1.9,0 -2.7,-0.8 -2.3,-2.3 l 12.5,-47.7 c 0.3,-1.3 1.5,-2.2 2.9,-2 h 3.2 c 0.6,-0.1 1.3,0.1 1.8,0.5 0.3,0.3 0.4,0.9 0.2,1.7 z"
   id="path10"
   style="display:none" />
<path
   class="st0"
   d="m 135.3,64 c -0.9,5.1 0,7.9 2.8,8.4 2.5,-0.9 5.6,-3.5 9.3,-7.8 0.5,-0.5 1.4,-0.6 2,-0.2 l 1.9,1.2 c 0.8,0.4 1.2,1.4 0.9,2.3 -1.3,2.5 -3.7,5.1 -7.2,7.9 -3.5,2.8 -6.3,4 -8.5,3.6 -4.8,-1.2 -7.7,-3.8 -8.5,-7.7 -1,-5.2 -0.1,-12.3 2.6,-21.3 2.7,-9 6.4,-15.8 11.2,-20.3 1.8,-1.6 3.9,-2.8 6.3,-3.4 2.6,-0.7 5.4,-0.5 7.9,0.6 2.8,1.2 4.1,4.5 4.1,10 0,5.5 -2.4,10.7 -7.2,15.6 -5,5.1 -11,8.8 -17.6,11.1 m 1.2,-6.6 c 2.9,-1.2 5.7,-2.8 8.2,-4.8 2.3,-1.9 4.2,-4.1 5.6,-6.7 1.4,-2.5 2.2,-5.3 2.2,-8.1 0,-2.8 -0.8,-4.2 -2.4,-4.2 -3.1,0 -5.8,2.6 -8.2,7.7 -2.3,5.2 -4.1,10.6 -5.4,16.1"
   id="path12"
   style="display:none" />
<path
   class="st0"
   d="m 205.3,3 -19.5,67.6 c 2.4,-2 4.4,-4.4 6.2,-6.9 0.7,-1.1 1.6,-1.3 2.6,-0.7 l 2.4,1.6 c 1.1,0.7 1.3,1.6 0.5,2.6 -2.3,2.8 -4.9,5.4 -7.7,7.6 -2.5,1.9 -5.4,3.2 -8.4,3.8 -0.8,0.3 -1.6,-0.1 -1.8,-0.9 0,-0.1 0,-0.1 -0.1,-0.2 l -2,-5.7 c -1.3,1.8 -2.8,3.4 -4.5,4.8 -1.6,1.3 -2.9,1.9 -3.9,1.9 h -0.2 c -1.3,0 -3.1,-1.1 -5.3,-3.4 -2,-1.9 -3.3,-4.5 -3.4,-7.3 -0.1,-5.3 1.4,-12.3 4.5,-20.8 3.1,-8.5 6,-14.2 8.7,-16.8 2.6,-2.6 6.3,-4 10,-3.9 2.3,0 4.5,0.6 6.5,1.9 l 6.9,-25.5 c 0.4,-1.5 1.8,-2.4 3.3,-2.2 h 2.9 c 2,-0.1 2.8,0.8 2.3,2.5 m -17,31 c -3.4,-1.9 -6.3,-2 -8.5,-0.4 -2.3,1.6 -4.5,5.3 -6.6,10.9 -1.8,4.9 -3.4,9.8 -4.6,14.9 -1,4.3 -1.1,7.2 -0.4,8.9 0.7,1.7 1.8,1.8 3.4,0.4 3.2,-2 6.1,-5.7 8.6,-11.2 2.6,-5.6 5.2,-13.4 8.1,-23.5"
   id="path14"
   style="display:none" />
<path
   class="st0"
   d="m 218.8,28.4 -12.4,47.7 c -0.3,1.4 -1.6,2.4 -3.1,2.2 h -3 c -1.9,0 -2.7,-0.8 -2.3,-2.4 l 12.5,-47.7 c 0.3,-1.3 1.5,-2.2 2.9,-2 h 3.4 c 0.6,-0.1 1.3,0.1 1.8,0.5 0.3,0.2 0.4,0.8 0.2,1.7 m -1.9,-17.8 h 1 c 1.2,0.1 2.3,0.6 3.1,1.6 0.9,0.9 1.5,2.2 1.4,3.6 0,1.3 -0.5,2.6 -1.5,3.4 -1,1 -2.4,1.5 -3.8,1.4 h -0.8 c -1.2,0 -2.3,-0.6 -3.1,-1.5 -1.9,-2 -1.8,-5.1 0.1,-7 0.9,-1 2.2,-1.6 3.6,-1.5"
   id="path16"
   style="display:none" />
<path
   class="st0"
   d="m 232.6,78.7 c -2.3,0 -4.6,-0.7 -6.6,-2 -0.5,1 -1.6,1.6 -2.7,1.6 h -1.7 c -2.4,0 -3.4,-1.1 -3,-3.3 L 237.4,2.7 c 0.3,-1.4 1.6,-2.4 3.1,-2.2 h 2.3 c 1.9,0 2.6,0.8 2.2,2.3 l -8.9,35 1.5,-2.5 c 1.3,-2.3 3,-4.4 5,-6.2 1.9,-1.7 3.4,-2.5 4.5,-2.5 h 0.2 c 0.9,0.2 1.8,0.6 2.6,1.2 1.3,0.9 2.5,2.1 3.4,3.4 1.1,1.3 1.9,2.8 2.3,4.4 0.4,1.5 0.3,4.3 -0.3,8.4 -1.1,5.7 -2.7,11.4 -4.8,16.8 -2.6,7.1 -5.2,11.9 -7.9,14.4 -2.7,2.3 -6.3,3.6 -10,3.5 m -5.1,-7.5 c 3.3,2 6.2,2.1 8.6,0.4 2.4,-1.7 4.8,-5.7 7.1,-11.8 1.9,-4.7 3.3,-9.5 4.4,-14.5 0.5,-2.3 0.8,-4.7 0.8,-7.1 -0.1,-1.2 -0.8,-2.2 -1.9,-2.7 -1.1,-0.6 -3,0.6 -5.7,3.5 -3,3.4 -5.3,7.4 -6.9,11.6 -2.4,6.4 -4.5,12.9 -6.3,19.4 z"
   id="path18"
   style="display:none" />
<path
   class="st0"
   d="m 257.3,63.4 c 0.3,-9.1 2.6,-18 6.9,-26 4.3,-8.2 9.7,-12.2 16.4,-12.1 3.4,0.2 6.4,2.1 8,5.2 1.4,2.2 2,6 1.8,11.4 -0.2,9.9 -3.1,19.7 -8.3,28.1 -3.7,6.3 -8.6,9.4 -14.7,9.1 -2.3,-0.1 -4.5,-1.2 -6.1,-2.9 -2.9,-2.6 -4.2,-6.9 -4,-12.8 m 17.6,4.1 c 4.6,-7.4 7.1,-16 7.3,-24.7 0.1,-4 -0.1,-6.7 -0.6,-8.1 -0.4,-1.3 -1.6,-2.2 -3,-2.1 -1.7,0 -3.2,0.8 -4.2,2.2 -1.5,1.9 -2.7,3.9 -3.7,6.2 -3.1,6.7 -4.8,14.1 -4.9,21.5 -0.1,6.2 0.9,9.4 3.2,9.6 1.9,-0.1 3.9,-1.6 5.9,-4.6"
   id="path20"
   style="display:none" />
<path
   class="st0"
   d="m 285.8,75.7 c 8.3,-10.1 14.5,-17.9 18.6,-23.6 -1.7,-7.2 -3.7,-14.6 -6,-22.2 -0.9,-2.5 -0.3,-3.8 1.6,-3.8 h 2.8 c 1.4,0 2.7,1 2.9,2.4 1.8,6.3 3.4,12.1 4.6,17.2 3,-4.4 6.8,-10.5 11.4,-18.4 0.6,-0.9 1.7,-1.4 2.8,-1.3 h 3.5 c 1.8,0 2,1.2 0.5,3.7 -5,8.3 -10.4,16.4 -16.2,24.2 1.6,7 3,14.3 4.2,22.1 0.2,1.4 -0.4,2.1 -1.6,2.2 l -3.1,0.3 c -0.6,0.2 -1.3,0 -1.8,-0.4 -0.5,-0.9 -0.8,-1.8 -0.9,-2.8 -0.7,-4.7 -1.6,-9.5 -2.7,-14.6 l -9.4,11.7 -2.6,3.3 -0.5,0.6 -0.5,0.6 c -0.2,0.2 -0.4,0.4 -0.6,0.5 l -0.7,0.3 c -0.5,0.3 -1.1,0.4 -1.6,0.4 h -2.9 c -0.8,0.1 -1.5,-0.2 -1.9,-0.9 -0.5,-0.4 -0.4,-1 0.1,-1.5"
   id="path22"
   style="display:none;fill:#ededed;fill-opacity:1" />
<path
   class="st1"
   d="m 351.3,5.5 -12.6,1.7 c -0.1,0 -0.2,0.1 -0.2,0.2 l -0.1,8.8 c -0.2,-0.1 -0.5,-0.1 -0.7,-0.1 -1.6,0 -2.9,1.3 -2.9,2.9 0,1.6 1.3,3 2.9,3 0,0 0,0 0,0 v 0 c 1.6,0 2.9,-1.3 2.9,-2.9 l 0.1,-8.2 8.5,-1.1 v 4.7 c -0.2,-0.1 -0.5,-0.1 -0.7,-0.1 -1.6,0 -2.9,1.3 -2.9,2.9 0,1.6 1.3,2.9 2.9,2.9 1.6,0 2.9,-1.3 2.9,-2.9 l 0.1,-11.7 c 0.1,0.1 0,0 -0.2,-0.1 0,0.1 0,0.1 0,0"
   id="path24"
   style="display:inline" />
<path
   class="st2"
   d="M367.5,0.5c-0.1,0-0.1-0.1-0.2-0.1l-8.5,1.2c-0.1,0-0.2,0.1-0.2,0.2v5.9c-0.1,0-0.3,0-0.4,0  c-1.1,0-2.1,0.9-2.1,2.1s0.9,2.1,2.1,2.1l0,0c1.1,0,2-0.9,2.1-2.1V4.3l5.6-0.7v3c-0.1,0-0.3,0-0.4,0c-1.1,0-2.1,0.9-2.1,2.1  s0.9,2.1,2.1,2.1c1.1,0,2-0.9,2.1-2l0-7.9c0-0.1,0-0.1-0.1-0.2L367.5,0.5z"
   id="path26" />
<g
   aria-label="Incredibox"
   transform="scale(0.86579114,1.155013)"
   id="text354"
   style="font-size:90.264px;font-family:'True Crimes';-inkscape-font-specification:'True Crimes, Normal';fill:#ededed;stroke:#000000;stroke-width:0"><path
     id="path301"
     d="M 22.592685 4.7635422 C 22.186498 4.7522592 21.780695 4.7916481 21.374508 4.881912 C 20.712572 5.0022639 20.3218 5.3034976 20.201448 5.7849051 C 20.081096 6.2663126 19.87068 6.7476101 19.5698 7.2290177 C 19.5698 7.5298974 19.389443 7.860578 19.028388 8.2216337 C 18.727508 8.4021615 18.487032 8.3432675 18.306504 8.0423878 C 18.125974 7.6211563 18.156036 7.1987527 18.39674 6.7775211 C 18.276385 6.6571692 18.186207 6.5376904 18.126034 6.4173385 C 18.126034 6.2368107 18.065915 6.0861938 17.945563 5.9658419 C 17.765035 5.7853141 17.432125 5.6952822 16.950718 5.6952822 C 16.649838 5.7554582 16.439422 5.906075 16.31907 6.1467788 C 16.198718 6.3273066 16.018361 6.3862005 15.777658 6.3260246 L 15.777658 6.2364017 C 15.717482 6.4169295 15.627303 6.5069614 15.506952 6.5069614 C 15.446776 6.4467855 15.356597 6.4779234 15.236245 6.5982753 C 15.115891 6.4779234 15.025712 6.4173385 14.965539 6.4173385 C 14.905366 6.4173385 14.875304 6.3567535 14.875304 6.2364017 L 14.785068 6.3260246 C 14.604541 6.2056727 14.394124 5.9650239 14.153421 5.6039683 C 13.672013 5.1827367 13.191062 5.0321199 12.709654 5.1524718 C 12.228247 5.2728236 11.717236 5.2433767 11.175653 5.0628489 C 11.055298 5.1832007 10.96512 5.1832007 10.904947 5.0628489 C 10.483715 5.1832007 10.060627 5.3944025 9.6393954 5.6952822 C 9.2181638 5.935986 8.9476288 6.2961136 8.8272769 6.7775211 C 8.5865731 7.860688 8.3460975 8.9150059 8.1053938 9.9379969 C 7.86469 10.960988 7.6843333 12.013615 7.5639815 13.096782 C 7.3834536 13.457837 7.2632158 13.87855 7.2030399 14.359957 C 7.142864 14.781189 7.0526856 15.201902 6.9323337 15.623133 C 6.9323337 15.743485 6.9022743 15.80407 6.8420983 15.80407 L 6.751863 15.80407 L 6.8420983 15.985007 C 6.5412186 17.369053 6.2406242 18.783499 5.9397445 20.227721 C 5.6990407 21.611768 5.4886246 22.995076 5.3080967 24.379122 C 5.007217 25.883521 4.736682 27.358551 4.4959782 28.802774 C 4.3154504 30.18682 4.0749748 31.601266 3.7740951 33.045488 C 3.5333914 34.610063 3.2606004 36.324051 2.9597207 38.189505 C 2.719017 39.994783 2.5086008 41.73991 2.328073 43.424836 C 2.2077211 44.508003 2.0574239 45.621215 1.8768961 46.764558 C 1.6963683 47.847724 1.6362494 48.902042 1.6964253 49.925033 C 1.5760734 50.105561 1.546014 50.285625 1.6061899 50.466153 C 1.6663659 50.586505 1.7264848 50.737121 1.7866607 50.917649 C 1.6663088 52.843279 1.4558927 54.797916 1.155013 56.783722 C 0.8541333 58.769528 0.61365768 60.725856 0.43312987 62.651486 C 0.43312987 63.313422 0.34295152 64.005921 0.1624237 64.728032 C -0.01810412 65.389968 -0.048163569 66.051329 0.072188311 66.713264 C 0.19254019 66.833616 0.31277799 66.984233 0.43312987 67.164761 C 0.55348175 67.345289 0.70377899 67.435321 0.88430681 67.435321 C 1.1250105 67.555672 1.3955456 67.555672 1.6964253 67.435321 C 1.997305 67.314969 2.2377806 67.19549 2.4183084 67.075138 C 2.7191881 66.89461 2.9296043 66.683408 3.0499561 66.442705 C 3.230484 66.141825 3.3807812 65.870038 3.5011331 65.629334 C 3.621485 65.328455 3.7439786 65.058359 3.8643305 64.817655 C 4.0448583 64.576951 4.2853339 64.396888 4.5862136 64.276536 C 5.0676211 64.457064 5.2479778 64.848329 5.127626 65.450089 C 5.06745 65.991672 5.1275689 66.502416 5.3080967 66.983824 C 5.5488005 67.34488 5.9395733 67.646113 6.4811568 67.886817 C 7.7448515 68.067345 8.8871106 67.887281 9.9101016 67.345698 C 10.391509 67.285519 10.844657 67.314969 11.265888 67.435321 C 11.747296 67.495496 12.228247 67.434912 12.709654 67.254384 C 13.07071 67.194208 13.401364 67.043591 13.702244 66.802887 C 14.003123 66.502007 14.21354 66.202465 14.333891 65.901585 C 15.356882 59.402584 16.499142 52.993408 17.762836 46.674935 C 19.026531 40.356461 20.5017 34.097902 22.186626 27.899781 L 22.276862 27.810158 C 22.457389 26.787167 22.697865 25.763987 22.998745 24.740996 C 23.3598 23.657829 23.660395 22.603511 23.901099 21.58052 L 23.991334 21.852771 C 23.931161 21.732419 23.931161 21.581802 23.991334 21.401274 C 24.051507 21.160571 24.081569 20.949369 24.081569 20.768841 L 23.991334 19.865848 C 23.870982 19.38444 23.750744 19.024313 23.630392 18.783609 C 23.510041 18.482729 23.510041 18.091464 23.630392 17.610056 C 24.051624 15.92513 24.442397 14.270036 24.803452 12.645285 C 25.224684 11.020535 25.677832 9.3654406 26.159239 7.6805142 C 26.279594 7.4398104 26.369772 7.1697147 26.429945 6.868835 C 26.5503 6.5679553 26.520238 6.2961686 26.33971 6.0554649 C 26.279534 5.3935295 25.888761 5.0022639 25.16665 4.881912 L 24.713217 4.881912 C 24.171634 4.881912 23.600504 4.8524651 22.998745 4.7922891 C 22.863349 4.7772451 22.728081 4.7673032 22.592685 4.7635422 z M 269.86472 17.378389 C 269.31185 17.367106 268.74373 17.474019 268.15702 17.699679 C 267.37473 18.000559 266.62099 18.090591 265.89888 17.970239 C 265.83868 17.970239 265.77856 18.001379 265.7184 18.061553 L 265.7184 17.970239 C 265.17683 18.090591 264.63575 18.121731 264.09417 18.061553 C 263.61276 17.941201 263.13181 18.031233 262.6504 18.332112 C 262.28934 18.51264 262.10899 18.782736 262.10899 19.143792 L 262.10899 20.136408 C 261.80811 20.677991 261.47745 21.251011 261.1164 21.852771 C 260.81552 22.45453 260.66522 23.086445 260.66522 23.74838 L 260.75546 23.74838 C 260.69526 23.989084 260.72529 24.349211 260.84569 24.830619 C 260.72534 25.071323 260.66522 25.251386 260.66522 25.371738 C 260.66522 25.612442 260.60511 25.673027 260.48475 25.552675 L 260.48475 25.643989 C 260.24405 25.944869 260.03363 26.334443 259.8531 26.815851 C 259.7929 27.297258 259.67266 27.780247 259.49216 28.261654 C 259.31163 28.743062 259.40181 29.193221 259.76287 29.614453 C 259.88322 29.975509 260.09364 30.18671 260.39452 30.246886 C 260.75557 30.246886 261.08623 30.307471 261.38711 30.427823 C 261.68799 30.427823 261.92846 30.486717 262.10899 30.607069 C 262.16919 30.546896 262.25937 30.546896 262.3797 30.607069 C 262.50005 30.667242 262.62028 30.698383 262.74064 30.698383 C 262.92116 31.059438 262.92116 31.450704 262.74064 31.871936 C 262.56011 32.293167 262.43988 32.684433 262.3797 33.045488 C 262.25935 33.526896 262.01887 33.736407 261.65781 33.676231 C 261.29676 33.555879 260.9661 33.616464 260.66522 33.857168 C 260.00328 34.158047 259.64257 34.609898 259.5824 35.211657 C 259.5222 35.813417 259.36965 36.384746 259.12897 36.92633 C 259.06877 37.046681 259.03873 37.16616 259.03873 37.286512 C 259.09893 37.406864 259.06889 37.528034 258.94849 37.648386 C 258.58744 39.333312 258.3169 40.957268 258.13638 42.521843 C 257.77532 44.086417 257.47472 45.65148 257.23402 47.216054 C 257.05349 48.720453 256.81302 50.22493 256.51214 51.729328 C 256.21126 53.955838 255.91067 56.121677 255.60979 58.227835 C 255.36909 60.273817 255.09855 62.441347 254.79767 64.728032 C 254.79767 65.149264 254.76763 65.569976 254.70743 65.991208 C 254.64723 66.41244 254.7374 66.774258 254.97814 67.075138 C 255.21884 67.376018 255.51943 67.524943 255.88049 67.524943 C 256.30172 67.46477 256.63237 67.405876 256.87308 67.345698 C 256.87308 67.225346 256.90312 67.194205 256.96332 67.254384 L 257.05355 67.345698 C 257.05355 67.16517 257.08359 67.104585 257.14379 67.164761 L 257.50473 66.623641 C 257.68526 66.443114 257.83555 66.231912 257.95591 65.991208 C 258.07626 66.051381 258.13638 66.051381 258.13638 65.991208 C 258.13638 65.931035 258.1965 65.931035 258.31685 65.991208 L 258.22661 65.991208 C 258.34696 65.991208 258.40708 66.020658 258.40708 66.080831 L 258.49732 66.080831 L 258.49732 65.991208 C 258.7982 66.11156 258.97855 66.291624 259.03873 66.532327 C 259.15908 66.773031 259.22146 67.01368 259.22146 67.254384 L 259.31169 67.254384 C 259.55239 67.374736 259.64257 67.495905 259.5824 67.616257 C 259.8231 67.736609 259.94334 67.826641 259.94334 67.886817 L 259.94334 67.797194 C 260.12387 67.917546 260.33429 67.97644 260.57499 67.97644 C 260.87587 67.97644 261.11634 67.917546 261.29687 67.797194 L 261.29687 67.886817 L 261.47734 67.797194 L 261.56758 67.797194 C 261.80828 67.436139 262.13893 67.314969 262.56017 67.435321 C 262.9814 67.555672 263.40223 67.585122 263.82346 67.524943 C 263.88366 67.46477 263.9137 67.46477 263.9137 67.524943 C 263.9739 67.585117 264.00393 67.555667 264.00393 67.435321 L 264.09417 67.616257 C 264.39505 67.495905 264.63552 67.374736 264.81605 67.254384 C 264.99658 67.073856 265.17693 66.893792 265.35746 66.713264 C 265.41766 66.532736 265.4477 66.352673 265.4477 66.172145 C 265.5079 65.991617 265.60033 65.809862 265.72066 65.629334 L 265.62817 65.720648 L 265.72066 65.179529 C 265.66046 65.059177 265.66046 64.967454 265.72066 64.907278 C 265.84101 64.786926 265.84101 64.696894 265.72066 64.636718 C 265.84101 64.516366 265.87105 64.396888 265.8109 64.276536 C 265.8109 64.156184 265.84093 64.005567 265.90113 63.825039 C 266.02148 63.644511 266.05152 63.464448 265.99137 63.28392 C 265.93117 63.103392 266.02134 62.921637 266.26207 62.741109 C 266.38242 62.620757 266.50266 62.591308 266.62301 62.651486 C 266.74337 62.71166 266.83355 62.801692 266.89372 62.922046 C 267.13443 63.403454 267.25466 63.945336 267.25466 64.547095 C 267.37502 64.908151 267.4652 65.299417 267.52537 65.720648 C 267.58557 66.081704 267.73587 66.412385 267.97655 66.713264 C 268.45795 67.07432 268.96896 67.285522 269.51055 67.345698 C 270.05213 67.405871 270.56314 67.37473 271.04455 67.254384 C 271.1649 67.374736 271.25508 67.405876 271.31525 67.345698 C 271.43561 67.225346 271.55584 67.225346 271.6762 67.345698 C 271.97708 67.225346 272.30999 67.164761 272.67104 67.164761 C 273.09227 67.164761 273.45299 67.104176 273.75387 66.983824 C 276.58214 66.502416 279.31981 65.389205 281.96754 63.644102 C 284.61529 61.838824 286.54134 59.461784 287.74486 56.513163 C 288.46698 54.948588 288.79763 53.2346 288.73745 51.369146 C 288.73745 49.443516 288.31662 47.69839 287.47416 46.133815 C 287.3538 46.073642 287.26363 46.013057 287.20345 45.952878 C 287.20345 45.832526 287.14333 45.711357 287.02298 45.591005 C 287.02298 45.470653 286.93281 45.320036 286.75227 45.139508 C 286.57175 44.95898 286.41919 44.778917 286.29884 44.598389 C 286.41919 44.538215 286.44923 44.508766 286.38908 44.508766 L 286.29884 44.417452 L 285.12578 43.154276 L 285.03555 42.973339 C 284.79484 42.852987 284.58442 42.733509 284.4039 42.613157 C 284.22337 42.432629 284.04301 42.282012 283.86249 42.16166 L 284.13319 41.8911 L 284.13319 41.980723 C 285.15618 41.258612 286.1504 40.476081 287.11322 39.633618 C 288.13621 38.791155 288.97787 37.82856 289.63981 36.745393 C 290.6628 35.240994 291.26399 33.527006 291.44451 31.601376 C 291.68522 29.61557 291.56498 27.749274 291.08357 26.004172 C 290.66234 25.041357 290.12127 24.108209 289.45934 23.205569 C 288.85758 22.242754 288.16621 21.430776 287.38392 20.768841 C 287.2034 20.768841 287.11322 20.678809 287.11322 20.498281 L 287.11322 20.587904 C 287.05302 20.527731 286.96284 20.468837 286.84251 20.408658 C 286.72216 20.348485 286.65978 20.256762 286.65978 20.136408 L 286.65978 20.227721 C 286.3589 20.10737 286.05831 19.956753 285.75743 19.776225 C 285.51672 19.535521 285.21613 19.384904 284.85507 19.324728 C 284.67455 19.204377 284.46413 19.114345 284.22343 19.054169 C 284.0429 18.933817 283.83249 18.812647 283.59178 18.692295 C 281.42545 18.150712 279.25891 17.790584 277.09258 17.610056 C 274.98642 17.429528 272.75977 17.368943 270.4129 17.429119 C 270.23237 17.399031 270.04901 17.38215 269.86472 17.378389 z M 249.42189 17.400372 C 249.09469 17.389088 248.74975 17.428478 248.3887 17.518742 C 247.90729 17.578918 247.60669 17.819567 247.48634 18.240798 C 247.42616 18.66203 247.24581 19.053296 246.94493 19.414351 C 246.94493 19.594879 246.88481 19.745496 246.76446 19.865848 C 246.70429 19.926024 246.61411 20.016056 246.49376 20.136408 C 246.25306 20.377114 246.0727 20.347664 245.95234 20.046785 C 245.77184 19.745905 245.80188 19.415224 246.04258 19.054169 C 245.92223 18.933817 245.86211 18.812647 245.86211 18.692295 C 245.86211 18.571943 245.80198 18.452464 245.68164 18.332112 C 245.5011 18.211761 245.22832 18.151176 244.86726 18.151176 C 244.62656 18.211352 244.4462 18.332521 244.32585 18.513049 C 244.2055 18.633401 244.0552 18.692295 243.87467 18.692295 L 243.87467 18.602672 C 243.87467 18.723024 243.81456 18.783609 243.6942 18.783609 C 243.63405 18.72343 243.57393 18.75288 243.51373 18.873232 C 243.39341 18.752885 243.30323 18.723436 243.24303 18.783609 C 243.18283 18.783609 243.15279 18.723024 243.15279 18.602672 L 243.15279 18.692295 C 243.03244 18.571943 242.85208 18.362432 242.61138 18.061553 C 242.25032 17.760673 241.85955 17.670641 241.43832 17.790993 C 241.07726 17.851169 240.68648 17.790584 240.26526 17.610056 C 240.14492 17.730408 240.05475 17.730408 239.99455 17.610056 C 239.69367 17.730408 239.36302 17.910472 239.00196 18.151176 C 238.64093 18.391879 238.43051 18.693113 238.37031 19.054169 L 237.82665 21.58052 C 237.64612 22.362807 237.49582 23.205923 237.37547 24.108563 C 237.19496 24.409442 237.07473 24.740123 237.01453 25.101179 C 237.01453 25.462234 236.95441 25.792915 236.83406 26.093795 C 236.83406 26.214146 236.80402 26.274731 236.74382 26.274731 L 236.65359 26.274731 L 236.74382 26.366045 C 236.50312 27.509388 236.26264 28.652047 236.02194 29.79539 C 235.84141 30.938733 235.69111 32.051944 235.57076 33.135111 C 235.26988 34.33863 235.05947 35.512427 234.93911 36.65577 C 234.81876 37.738937 234.60835 38.852149 234.30747 39.995491 C 234.12694 41.259186 233.91652 42.642494 233.67582 44.146892 C 233.43512 45.591115 233.25476 46.976113 233.13441 48.299984 C 233.07423 49.202623 232.954 50.104633 232.77346 51.007272 C 232.65306 51.849735 232.62303 52.692851 232.68323 53.535315 C 232.56283 53.655667 232.53279 53.806283 232.59299 53.986811 C 232.65319 54.107163 232.68323 54.226642 232.68323 54.346994 C 232.56288 55.911568 232.38252 57.476631 232.14182 59.041205 C 231.96128 60.605779 231.78093 62.170842 231.6004 63.735416 C 231.6004 64.216824 231.51022 64.757015 231.3297 65.358775 C 231.20934 65.900358 231.20934 66.442241 231.3297 66.983824 C 231.45002 67.104176 231.5402 67.225346 231.6004 67.345698 C 231.72076 67.46605 231.84099 67.524943 231.96135 67.524943 C 232.14187 67.64529 232.35229 67.676431 232.59299 67.616257 C 232.89387 67.495905 233.10429 67.374736 233.22464 67.254384 C 233.70603 66.953504 233.97656 66.562238 234.03676 66.080831 C 234.15711 65.539247 234.45771 65.17912 234.93911 64.998592 C 235.36035 65.118944 235.51064 65.420178 235.39029 65.901585 C 235.33012 66.382993 235.39023 66.803705 235.57076 67.164761 C 235.75129 67.525816 236.05188 67.766465 236.47312 67.886817 C 237.49611 68.067345 238.40015 67.916728 239.18243 67.435321 C 239.54349 67.435321 239.9042 67.46477 240.26526 67.524943 C 240.68648 67.585122 241.07726 67.555672 241.43832 67.435321 C 241.7392 67.375145 242.00974 67.224528 242.25044 66.983824 C 242.49114 66.74312 242.6715 66.533609 242.79185 66.353082 C 243.63431 61.117775 244.53835 55.972428 245.50117 50.917649 C 246.52416 45.86287 247.69648 40.868141 249.02035 35.933714 L 249.11058 35.8424 C 249.23093 34.999936 249.41129 34.158511 249.65199 33.316048 C 249.95287 32.473585 250.19335 31.661607 250.37388 30.87932 L 250.46411 31.058565 C 250.40391 30.938214 250.40391 30.818735 250.46411 30.698383 C 250.52431 30.517855 250.55435 30.367238 250.55435 30.246886 L 250.46411 29.52483 C 250.34376 29.163774 250.22352 28.862541 250.10317 28.621837 C 250.04302 28.381133 250.07305 28.079899 250.19341 27.718844 C 250.49429 26.334797 250.79488 25.012075 251.09576 23.74838 L 252.17858 19.776225 C 252.29892 19.595697 252.39135 19.384495 252.45155 19.143792 C 252.5117 18.842912 252.48166 18.602263 252.36131 18.421735 C 252.30114 17.940328 251.99829 17.639094 251.4567 17.518742 L 251.09576 17.518742 C 250.61435 17.518742 250.16346 17.489293 249.74223 17.429119 C 249.63692 17.414075 249.53096 17.404134 249.42189 17.400372 z M 71.290469 17.429119 C 70.508182 17.429119 69.906993 17.609183 69.485761 17.970239 C 69.425588 17.970239 69.395526 18.030824 69.395526 18.151176 C 69.395526 18.271522 69.335407 18.300972 69.215055 18.240798 L 69.124819 18.513049 L 69.124819 18.421735 C 68.884116 19.023495 68.6737 19.655409 68.493172 20.317344 C 68.312644 20.919104 68.042109 21.490433 67.681053 22.032017 C 67.620877 22.152371 67.528443 22.244094 67.408091 22.304267 C 67.347913 22.304267 67.287794 22.243682 67.22762 22.123331 C 66.926741 22.002979 66.836562 21.76233 66.956914 21.401274 C 67.077261 21.040219 67.107323 20.648953 67.04715 20.227721 C 67.04715 19.746314 67.137328 19.355048 67.317856 19.054169 C 67.378029 18.873641 67.408091 18.662439 67.408091 18.421735 C 67.408091 18.181032 67.317913 17.971521 67.137385 17.790993 C 66.836505 17.610465 66.535911 17.518742 66.235031 17.518742 C 65.8138 17.639089 65.302789 17.670229 64.70103 17.610056 C 64.159446 17.54988 63.798733 17.790529 63.618205 18.332112 C 63.49785 18.452464 63.407672 18.632528 63.347499 18.873232 C 63.28732 19.05376 63.227201 19.233823 63.167028 19.414351 C 62.505093 22.483324 61.933963 25.674034 61.452556 28.983711 C 61.031324 32.233211 60.578176 35.361645 60.096769 38.370442 C 59.976422 38.671322 59.94636 39.03314 60.006533 39.454372 C 60.126885 39.81543 59.946529 40.024941 59.465121 40.085114 C 59.284593 40.145288 59.134296 40.145288 59.013944 40.085114 C 58.953768 39.964762 58.86359 39.845284 58.743238 39.724932 C 57.900775 37.859478 57.029051 35.993181 56.126412 34.127727 C 55.223773 32.262273 54.352049 30.36653 53.509585 28.4409 C 53.44941 28.320548 53.356975 28.261654 53.236623 28.261654 C 53.17645 28.201478 53.17645 28.109755 53.236623 27.989404 C 52.514512 26.485005 51.763026 25.041113 50.980739 23.657066 C 50.198451 22.212843 49.416906 20.739504 48.634619 19.235105 C 48.333739 18.813874 47.973026 18.452055 47.551794 18.151176 C 47.130562 17.79012 46.617296 17.729535 46.015536 17.970239 C 45.654478 18.210943 45.444062 18.482729 45.383889 18.783609 C 45.203361 18.964137 45.053064 19.204785 44.932712 19.505665 C 44.872536 19.806545 44.66212 19.896577 44.301064 19.776225 L 44.120593 19.414351 C 44.120593 18.69224 43.72982 18.120911 42.947533 17.699679 C 42.285598 17.820026 41.594231 17.851166 40.872119 17.790993 C 40.210184 17.670641 39.54662 17.670641 38.884685 17.790993 C 38.643981 17.911345 38.403506 18.091409 38.162802 18.332112 C 37.922098 18.51264 37.80186 18.753289 37.80186 19.054169 L 37.440919 20.498281 L 37.079977 21.942394 C 36.839271 22.664505 36.688973 23.415898 36.6288 24.198185 C 36.568624 24.920297 36.26803 25.522764 35.726446 26.004172 C 35.606094 26.305054 35.485857 26.485118 35.365505 26.545291 C 35.365505 26.665643 35.335443 26.81626 35.275269 26.996788 C 35.215096 27.177315 35.185034 27.327932 35.185034 27.448284 C 34.342571 31.058841 33.591085 34.670263 32.929149 38.280819 C 32.32739 41.8312 31.754004 45.411484 31.212421 49.02204 C 31.212421 49.262744 31.182359 49.472255 31.122186 49.652783 C 31.062012 49.83331 31.03195 50.015065 31.03195 50.195593 L 30.671009 52.542699 C 30.550654 53.324986 30.460476 54.076379 30.400302 54.79849 L 30.310067 54.979427 C 30.310067 55.280307 30.280005 55.610988 30.219832 55.972043 C 30.219832 56.272923 30.18977 56.574157 30.129596 56.875036 C 30.009244 57.958203 29.889007 59.071415 29.768655 60.214758 C 29.648303 61.297925 29.528065 62.440584 29.407713 63.644102 C 29.407713 64.185686 29.347594 64.788153 29.227242 65.450089 C 29.167066 66.112024 29.287304 66.683353 29.588184 67.164761 C 30.009416 67.585992 30.460307 67.797194 30.941715 67.797194 C 31.362946 67.797194 31.786035 67.826644 32.207266 67.886817 C 32.688674 67.94699 33.109506 67.94699 33.470562 67.886817 C 33.771441 67.946993 34.072036 67.886408 34.372915 67.70588 C 34.673795 67.465176 34.884211 67.224528 35.004563 66.983824 C 35.004563 66.863472 35.034625 66.653961 35.094799 66.353082 C 35.21515 66.052202 35.335388 65.809862 35.45574 65.629334 C 35.335388 65.50898 35.335388 65.418948 35.45574 65.358775 C 35.636265 65.238423 35.666327 65.087806 35.545975 64.907278 C 35.545975 64.786924 35.606094 64.696892 35.726446 64.636718 C 35.846798 64.576545 35.967036 64.547095 36.087388 64.547095 C 36.207742 64.547095 36.297921 64.60768 36.358094 64.728032 L 36.538565 64.907278 L 36.448329 66.442705 C 36.568681 66.563056 36.6288 66.682535 36.6288 66.802887 C 36.688979 66.923242 36.749098 67.014965 36.809271 67.075138 L 36.899506 67.075138 C 37.14021 67.315844 37.410745 67.46477 37.711625 67.524943 C 38.012504 67.46477 38.28304 67.46477 38.523743 67.524943 C 38.824623 67.585119 39.127473 67.526225 39.428353 67.345698 L 39.338118 67.254384 C 39.578821 67.073856 39.759178 66.893792 39.87953 66.713264 C 39.999882 66.532736 40.12012 66.292088 40.240472 65.991208 L 40.150236 65.901585 C 40.631644 62.591908 41.202773 59.252273 41.864709 55.88242 C 42.526644 52.512568 43.218011 49.171241 43.940122 45.861564 C 44.060474 45.259805 44.270891 44.778508 44.57177 44.417452 C 44.752298 44.236927 45.022833 44.207477 45.383889 44.327829 C 45.684768 44.628709 45.895185 44.898804 46.015536 45.139508 C 46.135888 45.380212 46.318501 45.651999 46.559205 45.952878 C 47.22114 47.276749 47.912507 48.601163 48.634619 49.925033 C 49.35673 51.188728 50.018038 52.450866 50.619797 53.71456 L 50.710033 53.71456 C 51.010912 54.256144 51.311507 54.858611 51.612386 55.520547 C 51.913266 56.182482 52.394217 56.724364 53.056153 57.145596 L 55.224058 61.477934 C 56.006345 62.922156 56.757831 64.366049 57.479943 65.810271 C 57.600294 66.111151 57.750592 66.412385 57.93112 66.713264 C 58.11165 66.953968 58.231888 67.194617 58.292061 67.435321 C 58.412413 67.555667 58.472532 67.585117 58.472532 67.524943 C 58.592884 67.645298 58.713122 67.737021 58.833473 67.797194 C 59.014001 67.797194 59.164298 67.826644 59.28465 67.886817 C 59.645706 67.826638 60.008675 67.856088 60.369731 67.97644 C 60.790962 68.036616 61.181735 67.946584 61.542791 67.70588 C 61.723319 67.585528 61.873616 67.405465 61.993968 67.164761 C 62.11432 66.924057 62.324736 66.863472 62.625616 66.983824 C 62.866322 67.044 63.016619 67.16517 63.076793 67.345698 C 63.136968 67.46605 63.227147 67.585528 63.347499 67.70588 L 63.347499 67.524943 L 63.888911 67.797194 C 64.249967 67.857373 64.670799 67.916267 65.152206 67.97644 C 65.69379 67.97644 66.084563 67.825823 66.325267 67.524943 C 66.385445 67.404589 66.445564 67.314557 66.505737 67.254384 C 66.565916 67.194208 66.626035 67.104176 66.686208 66.983824 C 66.80656 66.562592 66.866679 66.171327 66.866679 65.810271 C 66.926855 65.38904 67.017033 65.028912 67.137385 64.728032 C 67.137385 64.667859 67.167447 64.636718 67.22762 64.636718 C 67.107269 64.516366 67.107269 64.457473 67.22762 64.457473 L 67.137385 64.366159 L 67.137385 64.005976 C 67.137385 63.885624 67.197504 63.825039 67.317856 63.825039 C 67.21592 63.519232 67.20651 63.212634 67.27725 62.906827 C 67.263329 62.914775 67.249489 62.922046 67.22762 62.922046 C 67.709028 59.371666 68.252354 55.881413 68.854113 52.451385 C 69.455873 48.96118 70.117181 45.441481 70.839292 41.8911 L 72.644 33.767545 C 73.005055 31.902091 73.395828 30.096379 73.81706 28.351277 L 75.263082 22.93501 C 75.44361 22.273074 75.593907 21.64116 75.714259 21.039401 C 75.834611 20.377465 76.045027 19.776689 76.345906 19.235105 C 76.345906 18.934226 76.375969 18.693577 76.436142 18.513049 C 76.556494 18.272345 76.496375 18.061144 76.255671 17.880616 C 75.954791 17.700091 75.684256 17.670641 75.443553 17.790993 C 75.263025 17.851169 75.082668 18.000095 74.90214 18.240798 C 74.781788 18.421326 74.629235 18.632528 74.448707 18.873232 C 74.328356 19.053762 74.147999 19.174932 73.907295 19.235105 C 73.666594 19.114754 73.576416 18.964137 73.636589 18.783609 C 73.756941 18.542905 73.756941 18.331703 73.636589 18.151176 C 73.456061 17.669771 73.095348 17.458569 72.553764 17.518742 C 72.072357 17.518742 71.651524 17.489293 71.290469 17.429119 z M 67.27725 62.906827 C 67.301634 62.892906 67.317856 62.870728 67.317856 62.832423 L 67.317856 62.741109 C 67.29944 62.796358 67.29003 62.851579 67.27725 62.906827 z M 107.64405 17.429119 C 107.41839 17.429119 107.18543 17.458566 106.94473 17.518742 C 106.8244 17.458569 106.73422 17.458569 106.67402 17.518742 C 104.80857 17.639094 102.97268 18.000913 101.16741 18.602672 C 99.4223 19.204432 97.769034 19.955825 96.20446 20.858464 L 96.114224 20.858464 C 96.054048 20.978818 95.96387 21.070541 95.843518 21.130715 C 95.723166 21.190893 95.602928 21.249787 95.482576 21.30996 L 95.392341 21.30996 C 95.031285 21.671016 94.638257 21.911665 94.217025 22.032017 L 94.307261 22.032017 C 93.886029 22.393072 93.435137 22.754891 92.95373 23.115947 C 92.472322 23.416826 92.05149 23.747507 91.690434 24.108563 C 91.509906 24.349266 91.239371 24.589915 90.878316 24.830619 C 90.21638 25.55273 89.464894 26.364708 88.622431 27.267347 C 87.779968 28.169986 86.996166 29.073687 86.274055 29.976327 L 84.379112 33.045488 C 84.198587 33.226019 84.138468 33.345498 84.198641 33.405671 C 82.87477 35.331301 81.850493 37.467693 81.128382 39.814555 C 80.827502 40.47649 80.556967 41.168989 80.316264 41.8911 C 80.135736 42.553036 79.985438 43.274982 79.865087 44.057269 C 79.744735 44.839556 79.624497 45.561503 79.504145 46.223438 C 79.383793 46.885373 79.323674 47.60732 79.323674 48.389607 C 79.263501 48.570135 79.233439 48.871368 79.233439 49.2926 C 79.233439 50.255415 79.263501 51.21801 79.323674 52.180825 C 79.444026 53.14364 79.654442 54.137373 79.955322 55.160364 C 80.015498 55.641772 80.135736 56.152516 80.316264 56.694099 L 80.857676 58.319149 C 81.09838 58.981084 81.431289 59.58186 81.852521 60.123444 C 82.333929 60.604851 82.724701 61.177872 83.025581 61.839807 C 84.830859 64.126493 87.027455 65.750449 89.61502 66.713264 C 92.262762 67.676079 95.000427 68.096792 97.828697 67.97644 C 98.189752 67.856093 98.550466 67.826644 98.911521 67.886817 C 99.272577 67.886817 99.63329 67.857367 99.994346 67.797194 C 100.41558 67.797194 100.80635 67.676024 101.16741 67.435321 C 101.58863 67.194617 101.88923 66.834489 102.06976 66.353082 C 102.00956 66.172554 102.00956 65.990799 102.06976 65.810271 C 102.12991 65.629743 102.09988 65.44968 101.97952 65.269152 C 101.85912 64.968269 101.82909 64.788206 101.88929 64.728032 C 101.76894 64.728032 101.6487 64.667447 101.52835 64.547095 C 101.46817 64.426741 101.37799 64.336709 101.25764 64.276536 C 101.13729 64.156181 101.07717 64.066149 101.07717 64.005976 C 101.13737 63.945797 101.13737 63.885212 101.07717 63.825039 L 101.16741 63.644102 L 101.16741 63.825039 C 101.28775 63.343634 101.52823 63.132433 101.88929 63.192606 C 102.25034 63.192606 102.58325 63.041989 102.88413 62.741109 C 103.18501 62.620757 103.33531 62.411247 103.33531 62.110367 C 103.33531 61.809487 103.42549 61.537701 103.60602 61.296997 L 103.60602 61.026437 C 103.66617 61.026437 103.72629 61.057578 103.78649 61.117751 C 103.78649 60.997399 103.75645 60.936814 103.69625 60.936814 C 103.75645 60.816462 103.75645 60.755877 103.69625 60.755877 C 103.69625 60.710745 103.73007 60.631938 103.76393 60.552958 C 103.74888 60.568001 103.72635 60.57494 103.69625 60.57494 L 103.60602 60.57494 C 103.66622 60.454586 103.66622 60.364554 103.60602 60.304381 L 103.60602 60.123444 C 103.42549 59.942916 103.33531 59.733405 103.33531 59.492702 C 103.39549 59.251998 103.48567 59.011349 103.60602 58.770645 L 103.42555 58.949891 C 103.42555 58.769361 103.45558 58.649882 103.51578 58.589709 C 103.57598 58.469357 103.60602 58.348187 103.60602 58.227835 C 103.60602 57.806603 103.48578 57.475923 103.24508 57.235219 C 102.64332 57.054694 102.06993 57.025244 101.52835 57.145596 C 101.04694 57.265943 100.53593 57.295392 99.994346 57.235219 C 99.512938 57.295392 99.031987 57.295392 98.55058 57.235219 C 98.069172 57.175043 97.588221 57.085011 97.106813 56.964659 C 96.023647 56.663779 95.029429 56.153035 94.12679 55.430924 C 93.284327 54.648637 92.592959 53.834967 92.051376 52.992504 C 92.051376 52.811976 91.991257 52.631913 91.870905 52.451385 C 91.750553 52.210681 91.690434 51.940585 91.690434 51.639706 C 91.389555 50.857418 91.239257 50.014302 91.239257 49.111663 C 91.299433 48.209024 91.389612 47.336461 91.509964 46.493998 C 91.630315 46.193118 91.690434 45.923022 91.690434 45.682319 C 91.75061 45.381439 91.870848 45.14079 92.051376 44.960262 C 92.29208 43.997447 92.652793 43.064299 93.134201 42.16166 C 93.675784 41.259021 94.276973 40.415905 94.938908 39.633618 L 95.029144 39.543995 C 95.330023 39.182939 95.632874 38.912843 95.933753 38.732316 C 96.294809 38.491612 96.595404 38.190378 96.836107 37.829323 C 97.738746 36.625804 98.730708 35.512592 99.813875 34.489601 C 100.95722 33.46661 102.22197 32.533462 103.60602 31.690999 C 104.1476 31.390119 104.71873 31.120023 105.32049 30.87932 C 105.98242 30.578437 106.64373 30.396682 107.30567 30.336509 C 107.7269 30.216163 108.14774 30.186713 108.56896 30.246886 C 109.05038 30.246886 109.4434 30.066822 109.74428 29.705767 C 110.10533 29.404887 110.28569 29.072515 110.28569 28.71146 C 110.28569 28.290228 110.34581 27.900654 110.46616 27.539598 C 110.40596 27.238718 110.37593 26.966932 110.37593 26.726228 C 110.37593 26.425348 110.3158 26.184699 110.19546 26.004172 C 110.19546 25.823644 110.25558 25.673027 110.37593 25.552675 C 110.49626 25.071268 110.58643 24.680002 110.64663 24.379122 C 110.52628 24.138418 110.52628 23.958355 110.64663 23.838003 C 110.82716 23.657475 110.91734 23.477411 110.91734 23.296883 C 111.03769 22.996004 111.15793 22.724217 111.27828 22.483513 C 111.45881 22.242809 111.60911 22.002161 111.72946 21.761457 C 111.84979 21.280049 111.93996 20.82989 112.00016 20.408658 C 112.06034 19.987427 112.15052 19.535576 112.27087 19.054169 L 112.18064 18.783609 C 111.93994 18.302201 111.57922 18.061553 111.09781 18.061553 C 110.61717 18.001471 110.16492 17.940692 109.74428 17.880616 L 109.74202 17.880616 L 108.29826 17.518742 C 108.08764 17.458566 107.86971 17.429119 107.64405 17.429119 z M 184.30127 17.429119 L 184.21103 17.518742 C 182.22523 17.458569 180.20899 17.458569 178.16301 17.518742 L 172.38569 17.518742 C 171.66357 17.578915 171.00227 17.610056 170.40051 17.610056 L 168.41533 17.610056 L 167.69345 17.610056 L 167.51298 17.610056 L 166.51813 17.610056 C 165.97654 17.489704 165.46553 17.609183 164.98413 17.970239 C 164.50272 18.271121 163.99171 18.452876 163.45013 18.513049 C 162.60766 18.693574 161.67582 18.752468 160.65283 18.692295 C 159.69001 18.571943 158.8461 18.873177 158.12398 19.595288 C 158.00364 20.317399 157.85334 21.070484 157.67281 21.852771 C 157.49228 22.574882 157.4021 23.296828 157.4021 24.01894 C 157.4021 24.319819 157.5524 24.589915 157.85328 24.830619 C 158.21434 25.011147 158.51493 25.161763 158.75563 25.282115 C 158.81583 25.40247 158.81583 25.492502 158.75563 25.552675 C 158.69543 25.612851 158.6654 25.702883 158.6654 25.823235 C 158.54504 26.063941 158.33463 26.214558 158.03375 26.274731 C 157.73287 26.334907 157.52245 26.456077 157.4021 26.636605 L 157.4021 26.815851 L 157.31186 26.907165 L 157.31186 26.996788 L 157.22163 26.996788 C 157.16148 27.177315 157.10136 27.388517 157.04116 27.629221 C 157.04116 27.809749 157.01112 27.989813 156.95092 28.17034 C 157.01108 28.47122 156.98104 28.743007 156.86069 28.983711 C 156.74033 29.164238 156.74033 29.373749 156.86069 29.614453 L 156.95092 29.614453 C 157.01112 29.734807 157.01112 29.824839 156.95092 29.885013 C 156.89077 29.885013 156.92081 29.916153 157.04116 29.976327 L 157.04116 29.885013 L 157.13139 29.885013 C 157.19159 29.885013 157.19159 29.945598 157.13139 30.065949 C 157.25175 30.005771 157.31186 30.036912 157.31186 30.157263 C 157.37202 30.217442 157.43214 30.186301 157.49234 30.065949 L 157.49234 30.157263 C 157.55254 30.157263 157.58257 30.186713 157.58257 30.246886 C 158.0038 30.367233 158.42463 30.396682 158.84587 30.336509 C 159.32727 30.276333 159.75036 30.336918 160.11142 30.517446 C 160.35214 30.697974 160.44232 30.909176 160.38212 31.149879 C 160.32198 31.330407 160.26185 31.510471 160.20165 31.690999 C 160.08132 32.172406 159.99115 32.653704 159.93095 33.135111 C 159.87077 33.616519 159.71822 34.097816 159.47751 34.579224 C 159.17663 34.94028 158.81592 35.210375 158.39469 35.390903 C 158.03366 35.571431 157.82324 35.903803 157.76304 36.38521 C 157.40198 37.949784 157.04127 39.604879 156.68022 41.349981 C 156.31916 43.095083 155.98851 44.779625 155.68763 46.404375 C 155.56727 46.645079 155.50716 46.915174 155.50716 47.216054 C 155.56731 47.516934 155.53727 47.78872 155.41692 48.029424 C 155.29658 48.811711 155.14628 49.592552 154.96574 50.374839 C 154.8454 51.157126 154.72516 51.939657 154.6048 52.721944 C 154.48445 53.564408 154.36421 54.436971 154.24386 55.33961 C 154.12351 56.182073 154.00327 57.025189 153.88292 57.867652 C 153.70241 58.710115 153.58218 59.643263 153.52198 60.666254 C 153.46181 61.689245 153.31151 62.620702 153.0708 63.463166 C 153.13095 63.824221 153.10091 64.246625 152.98057 64.728032 C 152.86017 65.20944 152.83013 65.659599 152.89033 66.080831 C 153.01073 66.381711 153.04077 66.592912 152.98057 66.713264 L 153.0708 66.713264 C 153.37168 67.194672 153.85264 67.495905 154.51457 67.616257 C 155.71809 67.556084 156.83028 67.556084 157.85328 67.616257 C 158.87627 67.676436 159.96066 67.645295 161.10401 67.524943 L 161.19424 67.616257 C 161.61548 67.556079 162.00625 67.495494 162.3673 67.435321 C 162.78854 67.375145 163.14925 67.195081 163.45013 66.894201 C 163.5103 66.773849 163.69066 66.773849 163.99154 66.894201 C 164.71365 67.616312 165.55531 67.917546 166.51813 67.797194 C 167.48094 67.616666 168.41504 67.616666 169.31768 67.797194 C 170.16015 67.797194 170.91164 67.826644 171.57357 67.886817 C 172.29568 67.886817 173.07948 67.916267 173.92194 67.97644 C 174.22282 67.856093 174.46329 67.826644 174.64383 67.886817 C 174.88453 67.886817 175.125 67.857367 175.36571 67.797194 C 175.60639 67.797194 175.75669 67.736609 175.81689 67.616257 C 175.87706 67.43573 175.9973 67.285113 176.17783 67.164761 C 176.53889 66.803705 176.71924 66.441887 176.71924 66.080831 C 176.77941 65.659599 176.89966 65.238887 177.08018 64.817655 L 177.26065 64.817655 C 177.26065 64.516775 177.20054 64.24668 177.08018 64.005976 C 176.95986 63.765272 176.86968 63.493486 176.80948 63.192606 C 176.7493 62.771374 176.80942 62.501279 176.98995 62.380927 C 177.23065 62.200399 177.41101 61.95975 177.53136 61.65887 C 177.65171 60.996935 177.77195 60.365021 177.8923 59.763261 C 178.07283 59.101326 178.22312 58.439965 178.34348 57.778029 L 177.98254 57.416156 C 177.92236 57.235628 177.83218 57.085011 177.71183 56.964659 L 177.62159 56.964659 L 177.62159 56.783722 C 176.83931 56.663376 176.05777 56.633926 175.27547 56.694099 C 174.49319 56.694099 173.70938 56.66465 172.9271 56.604477 C 172.68639 56.66465 172.44592 56.694099 172.20522 56.694099 C 172.02469 56.633926 171.84434 56.633926 171.6638 56.694099 C 171.00187 56.633926 170.3105 56.633926 169.58839 56.694099 C 168.92646 56.754278 168.29521 56.724828 167.69345 56.604477 C 167.57309 56.604477 167.45286 56.633926 167.3325 56.694099 C 167.27233 56.694099 167.18215 56.66465 167.0618 56.604477 L 166.42789 56.604477 C 166.1872 56.544301 166.00684 56.452578 165.88648 56.332226 C 165.70594 55.97117 165.6759 55.64049 165.79625 55.33961 C 165.91658 54.978554 166.00675 54.618427 166.06695 54.257371 C 166.30765 53.414908 166.51807 52.601239 166.6986 51.818951 C 166.87913 51.036664 167.12186 50.224686 167.42274 49.382223 C 167.84397 48.960994 168.29486 48.78093 168.77627 48.841103 L 170.76145 48.841103 C 171.48356 48.78093 172.20499 48.78093 172.9271 48.841103 C 173.46868 48.961455 173.92183 48.840285 174.28289 48.47923 C 174.64394 48.118174 175.06477 47.877525 175.54618 47.757174 C 175.84706 47.576646 176.20778 47.486614 176.62901 47.486614 C 177.11042 47.486614 177.50119 47.396582 177.80207 47.216054 C 178.34365 46.674471 178.6743 45.923077 178.79465 44.960262 C 178.97515 44.298327 178.94512 43.69586 178.70442 43.154276 C 178.70442 43.03393 178.67438 43.00448 178.61418 43.064653 L 178.61418 42.973339 C 178.43366 42.913163 178.34348 42.823132 178.34348 42.70278 C 178.34348 42.161196 178.52384 41.830516 178.88489 41.710164 C 178.88489 41.589809 178.94501 41.499777 179.06536 41.439604 C 179.18576 41.379428 179.2158 41.289396 179.1556 41.169044 C 179.1556 41.108868 179.18563 41.018836 179.24583 40.898484 C 179.36623 40.778133 179.39627 40.717548 179.33607 40.717548 C 179.39627 40.597196 179.39627 40.476026 179.33607 40.355674 C 179.27592 40.175146 179.2158 40.024529 179.1556 39.904177 C 178.91489 39.663474 178.67442 39.543995 178.43371 39.543995 L 176.89971 39.543995 C 176.4183 39.543995 175.93735 39.514545 175.45595 39.454372 C 175.21525 39.514545 174.91465 39.543995 174.55359 39.543995 C 174.25271 39.543995 173.97992 39.48341 173.73922 39.363058 C 173.31798 39.423231 172.92722 39.454372 172.56616 39.454372 L 171.30286 39.454372 C 171.00198 39.33402 170.85168 38.972201 170.85168 38.370442 L 170.85168 37.829323 C 170.97204 37.347915 171.09228 36.896065 171.21263 36.474833 C 171.39316 36.053601 171.54346 35.632889 171.6638 35.211657 C 171.6638 34.910778 171.72392 34.670129 171.84427 34.489601 C 171.9646 34.248897 172.05478 34.008248 172.11498 33.767545 C 172.23533 33.526841 172.35557 33.07499 172.47592 32.413055 C 172.35557 32.172351 172.23533 31.96115 172.11498 31.780622 C 172.05481 31.600094 171.87445 31.449477 171.57357 31.329125 L 171.57357 31.510062 L 171.48333 31.329125 C 171.12227 31.268947 170.82168 31.300087 170.58098 31.420439 C 170.40045 31.540791 170.25015 31.720855 170.1298 31.961559 C 170.00945 32.142086 169.85915 32.353288 169.67862 32.593992 C 169.55827 32.834696 169.40797 33.044206 169.22745 33.224734 C 168.98677 33.224734 168.83647 33.195285 168.77627 33.135111 C 168.71612 33.014757 168.656 32.924725 168.5958 32.864552 C 168.53565 32.804373 168.56568 32.743788 168.68604 32.683615 C 168.74624 32.503087 168.74624 32.323023 168.68604 32.142495 C 168.68604 31.901792 168.77622 31.721728 168.95674 31.601376 L 168.86651 31.601376 C 168.80631 31.420845 168.80631 31.299676 168.86651 31.239502 C 168.98683 31.11915 169.07701 30.968534 169.13721 30.788006 C 169.43809 30.426953 169.7988 30.276336 170.22004 30.336509 C 170.64127 30.336509 171.0621 30.30706 171.48333 30.246886 C 173.10808 30.307065 174.73355 30.36765 176.3583 30.427823 C 177.98305 30.427823 179.66863 30.457273 181.41374 30.517446 C 181.71462 30.637798 181.98516 30.698383 182.22586 30.698383 C 182.46656 30.638204 182.73709 30.577619 183.03797 30.517446 C 183.21847 30.517446 183.33872 30.487996 183.39892 30.427823 C 183.4591 30.307469 183.54927 30.217437 183.66962 30.157263 C 183.78997 29.675856 183.91021 29.224005 184.03056 28.802774 C 184.15096 28.321366 184.181 27.840069 184.1208 27.358661 C 184.00047 27.238309 183.91029 27.117139 183.85009 26.996788 C 183.78995 26.81626 183.72982 26.726228 183.66962 26.726228 C 183.54927 26.605873 183.39897 26.515841 183.21844 26.455668 C 183.03791 26.335316 182.88761 26.274731 182.76727 26.274731 C 182.52656 26.034028 182.40633 25.853964 182.40633 25.733612 C 182.34618 25.61326 182.37622 25.552675 182.49656 25.552675 C 182.61691 25.492499 182.67703 25.37302 182.67703 25.192492 C 183.5195 25.011965 184.24092 24.530667 184.84268 23.74838 C 184.96304 23.4475 185.11333 23.175713 185.29386 22.93501 C 185.47439 22.63413 185.56456 22.303449 185.56456 21.942394 L 185.47433 21.942394 L 185.74504 19.235105 L 185.83527 19.054169 L 185.92551 19.143792 C 185.86531 19.023437 185.83527 18.933405 185.83527 18.873232 C 185.89547 18.75288 185.89547 18.633401 185.83527 18.513049 C 185.59457 17.91129 185.08356 17.549471 184.30127 17.429119 z M 202.08215 17.429119 C 201.66092 17.489293 201.24008 17.518742 200.81886 17.518742 C 200.39762 17.458569 199.97679 17.458569 199.55556 17.518742 C 198.7131 17.578915 197.96161 17.578915 197.29968 17.518742 C 196.69792 17.39839 196.00429 17.51956 195.22201 17.880616 C 194.7406 18.181496 194.40995 18.572761 194.22942 19.054169 C 194.04889 19.4754 193.89859 19.956698 193.77824 20.498281 C 193.65789 20.618633 193.59777 20.738112 193.59777 20.858464 C 193.65797 20.978818 193.65797 21.070541 193.59777 21.130715 L 193.59777 21.58052 C 193.7783 22.242455 193.71818 22.87437 193.4173 23.476129 C 193.11642 24.017713 193.0563 24.62018 193.23683 25.282115 C 193.23683 25.40247 193.26686 25.492502 193.32706 25.552675 C 193.44742 25.552675 193.44742 25.583816 193.32706 25.643989 C 193.4474 25.764336 193.53757 25.793785 193.59777 25.733612 C 193.71812 25.853966 193.86841 25.943998 194.04895 26.004172 C 194.28965 26.004172 194.40989 26.094204 194.40989 26.274731 C 194.53022 26.635787 194.50018 26.907574 194.31965 27.088101 C 194.01877 27.208453 193.68812 27.327932 193.32706 27.448284 C 192.96601 27.50846 192.69547 27.719662 192.51495 28.080717 C 192.39459 28.441773 192.39459 28.801901 192.51495 29.162956 C 192.81583 29.70454 193.26672 29.915742 193.86848 29.79539 C 194.53041 29.675038 195.07374 29.675038 195.49497 29.79539 C 195.73568 29.915742 195.91604 29.915742 196.03638 29.79539 L 196.12662 29.885013 L 196.30709 29.79539 C 196.42743 29.79539 196.48756 29.824839 196.48756 29.885013 L 196.66803 29.885013 L 196.75826 29.79539 C 197.05914 29.975918 197.20944 29.975918 197.20944 29.79539 C 197.32979 29.855563 197.45003 29.885013 197.57038 29.885013 C 197.69074 29.824839 197.81097 29.824839 197.93132 29.885013 C 197.99148 30.005365 198.0516 30.155981 198.1118 30.336509 C 198.23214 30.456861 198.23214 30.578031 198.1118 30.698383 C 197.99146 30.999263 197.90129 31.329943 197.84109 31.690999 C 197.78092 32.052054 197.54044 32.292703 197.11921 32.413055 C 196.87851 32.232527 196.75826 32.052463 196.75826 31.871936 C 196.81842 31.631232 196.78838 31.390583 196.66803 31.149879 L 196.57779 31.058565 C 196.51759 30.998392 196.51759 30.968943 196.57779 30.968943 L 196.12662 30.427823 C 196.00626 30.36765 195.88603 30.36765 195.76568 30.427823 C 195.7055 30.427823 195.61532 30.367238 195.49497 30.246886 C 194.89321 30.246886 194.50018 30.577567 194.31965 31.239502 C 194.01877 32.081965 193.7783 32.925082 193.59777 33.767545 C 193.41724 34.610008 193.26694 35.482571 193.14659 36.38521 C 192.90589 37.047145 192.72553 37.769092 192.60518 38.551379 C 192.54501 39.27349 192.45483 39.964298 192.33448 40.626234 C 192.0336 41.709401 191.79312 42.822613 191.61259 43.965955 C 191.49224 45.049122 191.34194 46.164025 191.16141 47.307368 C 191.10124 47.848951 191.01106 48.389143 190.89071 48.930726 C 190.77036 49.47231 190.71024 49.984745 190.71024 50.466153 C 190.46953 51.54932 190.25912 52.723116 190.07859 53.986811 C 189.95824 55.19033 189.80794 56.393574 189.62741 57.597093 C 189.62741 58.198852 189.5673 58.830766 189.44694 59.492702 C 189.32659 60.154637 189.26647 60.815998 189.26647 61.477934 C 189.20633 61.718637 189.1462 61.988733 189.086 62.289613 C 189.086 62.530317 189.05597 62.802103 188.99577 63.102983 C 188.93561 63.524215 188.87549 63.944927 188.81529 64.366159 C 188.81529 64.727214 188.84533 65.11848 188.90553 65.539711 C 188.725 66.021119 188.725 66.47297 188.90553 66.894201 C 189.08606 67.014553 189.26642 67.16517 189.44694 67.345698 C 189.62747 67.46605 189.83788 67.524943 190.07859 67.524943 C 190.49982 67.645295 190.83048 67.586401 191.07118 67.345698 C 191.37206 67.104994 191.73277 67.044409 192.154 67.164761 C 192.39471 67.646168 192.72536 67.886817 193.14659 67.886817 C 193.56782 67.886817 193.98866 67.916267 194.40989 67.97644 C 195.07183 67.67556 195.70533 67.585528 196.30709 67.70588 C 196.90885 67.826232 197.47998 67.7362 198.02156 67.435321 L 198.02156 67.524943 L 198.1118 67.435321 L 198.20203 67.435321 L 198.29227 67.345698 C 198.35242 67.405871 198.41254 67.405871 198.47274 67.345698 C 198.41254 67.345698 198.3825 67.285113 198.3825 67.164761 C 198.6232 67.104585 198.80356 66.863936 198.92391 66.442705 L 199.01415 66.353082 C 199.19468 65.992026 199.28486 65.60076 199.28486 65.179529 C 199.34503 64.698121 199.43521 64.275718 199.55556 63.914662 C 199.49542 63.854489 199.52545 63.825039 199.6458 63.825039 C 199.76615 63.825039 199.76615 63.79559 199.6458 63.735416 C 199.70598 63.554888 199.85627 63.463166 200.09697 63.463166 C 200.39783 63.463166 200.57819 63.584335 200.63839 63.825039 C 200.75871 64.065743 200.84889 64.306392 200.90909 64.547095 C 200.84889 64.547095 200.81886 64.576545 200.81886 64.636718 C 200.81886 64.696892 200.87898 64.728032 200.99933 64.728032 C 201.05948 65.149264 201.1196 65.540529 201.1798 65.901585 C 201.30015 66.262641 201.51057 66.593321 201.81145 66.894201 C 201.99197 67.014553 202.20464 67.075138 202.44535 67.075138 L 203.25747 67.075138 C 203.79905 66.834434 204.37018 66.834434 204.97194 67.075138 C 205.5737 67.315842 206.14483 67.315842 206.68641 67.075138 L 206.86688 67.164761 L 206.86688 67.075138 C 209.63498 66.353027 212.25241 65.148092 214.71962 63.463166 C 217.24701 61.718063 219.35343 59.642256 221.03835 57.235219 C 221.39941 56.633459 221.82024 56.032683 222.30165 55.430924 C 222.422 55.130044 222.54224 54.889395 222.66259 54.708867 C 222.84312 54.52834 223.02347 54.287691 223.204 53.986811 C 224.10664 52.422237 224.95056 50.796589 225.73285 49.111663 C 226.57531 47.426737 227.23662 45.621026 227.71803 43.695396 C 228.19941 41.829942 228.46995 39.904752 228.53015 37.918946 C 228.6505 35.872964 228.47014 33.916636 227.98873 32.051181 C 227.92853 31.93083 227.8985 31.811351 227.8985 31.690999 C 227.9587 31.570647 227.9587 31.449477 227.8985 31.329125 C 227.8985 30.96807 227.80832 30.668527 227.62779 30.427823 C 227.50744 30.126943 227.44732 29.82571 227.44732 29.52483 C 227.14644 28.802719 226.81579 28.110219 226.45473 27.448284 C 226.09368 26.726173 225.73297 26.033674 225.37191 25.371738 C 224.6498 24.168219 223.77582 23.055008 222.75282 22.032017 C 221.79001 21.009026 220.67781 20.197048 219.41412 19.595288 C 218.4513 19.113881 217.45708 18.753753 216.43409 18.513049 C 215.4111 18.272345 214.41914 18.090591 213.45632 17.970239 C 213.27579 17.91006 213.09544 17.851166 212.91491 17.790993 C 212.73438 17.730814 212.58409 17.760264 212.46373 17.880616 L 212.3735 17.790993 L 212.28326 17.880616 L 212.28326 17.790993 C 212.16294 17.790993 212.07276 17.759852 212.01256 17.699679 C 211.95238 17.6395 211.8622 17.670641 211.74185 17.790993 L 211.65162 17.610056 L 211.65162 17.699679 C 211.41091 17.639506 211.20049 17.639506 211.01997 17.699679 C 210.89961 17.699679 210.71926 17.670229 210.47856 17.610056 L 208.49112 17.610056 C 208.37077 17.549883 208.19042 17.549883 207.94971 17.610056 C 207.76918 17.610056 207.58882 17.578915 207.4083 17.518742 C 206.50566 17.518742 205.63394 17.549883 204.79147 17.610056 C 203.94901 17.610056 203.04497 17.549471 202.08215 17.429119 z M 198.02156 67.524943 L 198.02156 67.616257 L 198.20203 67.524943 L 198.02156 67.524943 z M 321.25377 17.429119 C 320.8175 17.429119 320.35909 17.458566 319.87769 17.518742 C 318.97505 17.578915 318.07326 17.700085 317.17062 17.880616 C 316.68922 18.000968 316.20601 18.151585 315.7246 18.332112 C 315.2432 18.452464 314.85242 18.693113 314.55154 19.054169 C 314.19048 19.535576 314.13036 20.106906 314.37107 20.768841 C 314.5516 21.129897 314.43136 21.399992 314.01013 21.58052 C 313.88978 21.640693 313.76953 21.671834 313.64919 21.671834 C 313.52883 21.611661 313.4086 21.58052 313.28825 21.58052 C 312.98737 21.27964 312.68677 21.038992 312.38589 20.858464 C 312.14519 20.61776 311.84459 20.558866 311.48354 20.679218 C 309.37738 21.461505 307.42126 22.574717 305.61598 24.01894 C 303.8107 25.402986 302.2153 26.997496 300.83125 28.802774 C 300.47019 29.163829 300.28984 29.613989 300.28984 30.155572 C 300.28984 30.697156 300.22971 31.209591 300.10937 31.690999 C 298.96602 33.436101 297.97407 35.392429 297.1316 37.558763 C 295.92808 40.447208 295.11421 43.515057 294.69299 46.764558 C 294.27176 50.014058 294.51449 53.17363 295.41713 56.242603 C 295.83836 57.867353 296.46961 59.461863 297.31207 61.026437 C 298.15454 62.530836 299.20662 63.794664 300.47031 64.817655 C 301.73401 65.840646 303.11899 66.59373 304.62339 67.075138 C 306.12779 67.556545 307.63076 67.856088 309.13516 67.97644 C 310.69973 68.036613 312.23502 67.917134 313.73942 67.616257 C 315.24382 67.315378 316.62881 66.863527 317.89251 66.261768 L 317.98274 66.353082 L 318.16321 66.261768 L 318.16321 66.080831 L 318.25345 66.172145 C 318.79503 65.811089 319.27599 65.539302 319.69721 65.358775 C 320.11845 65.178247 320.56934 64.908151 321.05075 64.547095 C 321.23128 64.547095 321.32145 64.517646 321.32145 64.457473 L 321.41169 64.547095 C 321.65239 64.246216 321.92293 64.005567 322.22381 63.825039 C 322.58486 63.584335 322.91777 63.343687 323.21865 63.102983 C 324.06112 62.501224 324.8126 61.808724 325.47454 61.026437 C 326.19665 60.24415 326.94813 59.492757 327.73042 58.770645 C 328.93394 57.206071 330.07845 55.670456 331.16162 54.166057 C 332.24479 52.601483 333.17662 50.946388 333.95892 49.201286 C 335.46332 46.192489 336.48534 42.944576 337.02692 39.454372 C 337.56851 35.964167 337.26791 32.563947 336.12457 29.25427 C 335.46263 27.32864 334.53079 25.522929 333.32727 23.838003 C 332.18392 22.092901 330.73881 20.649008 328.99372 19.505665 C 327.06808 18.302146 324.93161 17.609647 322.58475 17.429119 L 322.49451 17.518742 C 322.10337 17.458566 321.69005 17.429119 321.25377 17.429119 z M 318.16321 66.261768 L 318.07298 66.353082 C 318.13318 66.353082 318.16321 66.321941 318.16321 66.261768 z M 376.83426 17.429119 L 376.83426 17.518742 C 376.65374 17.458569 376.44332 17.458569 376.20261 17.518742 C 375.96191 17.578915 375.75149 17.578915 375.57097 17.518742 C 375.02938 17.578915 374.42819 17.610056 373.76626 17.610056 C 373.1645 17.549883 372.56105 17.549883 371.9593 17.610056 C 371.41771 17.790584 370.93676 18.121265 370.51553 18.602672 C 370.0943 19.023904 369.73358 19.444616 369.4327 19.865848 C 368.22919 21.430422 367.08467 22.995485 366.0015 24.560059 C 364.91834 26.064458 363.80614 27.598382 362.66279 29.162956 C 362.54245 29.223135 362.39215 29.28372 362.21162 29.343893 C 362.03109 29.404069 361.88079 29.343484 361.76044 29.162956 C 361.70024 29.162956 361.67021 29.104062 361.67021 28.983711 C 361.67021 28.863364 361.64017 28.832223 361.57997 28.892397 C 361.21891 27.50835 360.91832 26.093905 360.67762 24.649682 C 360.43691 23.205459 360.16638 21.700982 359.8655 20.136408 C 359.80534 19.95588 359.74523 19.806954 359.68503 19.686602 C 359.68503 19.506074 359.62491 19.355457 359.50456 19.235105 C 359.1435 18.753701 358.69036 18.542499 358.14877 18.602672 C 357.60719 18.662851 357.09617 18.633401 356.61477 18.513049 C 356.49441 18.452876 356.37418 18.452876 356.25383 18.513049 C 356.19367 18.573228 356.13356 18.542087 356.07336 18.421735 L 356.07336 18.332112 C 355.77248 18.332112 355.47188 18.24208 355.171 18.061553 C 354.87012 17.881022 354.53947 17.759852 354.17841 17.699679 L 354.08818 17.790993 C 353.72712 17.670641 353.36641 17.670641 353.00535 17.790993 C 352.64429 17.851172 352.31139 17.820031 352.01051 17.699679 C 351.70963 17.759852 351.37897 17.790993 351.01792 17.790993 C 350.71704 17.730817 350.41644 17.789711 350.11556 17.970239 L 350.11556 17.880616 L 350.02533 17.880616 C 349.90498 17.940792 349.78474 18.030824 349.66439 18.151176 C 349.60421 18.271522 349.51403 18.300972 349.39368 18.240798 C 349.39368 18.36115 349.33356 18.48232 349.21321 18.602672 C 349.15306 18.662848 349.18309 18.75288 349.30345 18.873232 C 349.24325 19.174112 349.21321 19.475345 349.21321 19.776225 C 349.27338 20.077105 349.21327 20.317753 349.03274 20.498281 C 348.73186 20.498281 348.58156 20.468832 348.58156 20.408658 C 348.28068 20.167955 348.1905 19.9862 348.31086 19.865848 C 348.07015 19.865848 347.94991 19.715231 347.94991 19.414351 L 347.94991 19.505665 L 347.76944 19.143792 C 347.70924 19.023437 347.67921 18.933405 347.67921 18.873232 C 347.67921 18.75288 347.58903 18.692295 347.4085 18.692295 C 347.10762 18.571943 346.80703 18.571943 346.50615 18.692295 C 346.20527 18.752471 345.90467 18.873641 345.60379 19.054169 C 345.48344 19.234696 345.42332 19.475345 345.42332 19.776225 L 345.42332 20.498281 C 346.08526 22.845143 346.77662 25.192736 347.49874 27.539598 C 348.28102 29.88646 349.03251 32.202915 349.75462 34.489601 C 349.75462 34.790481 349.72459 35.090023 349.66439 35.390903 C 349.66439 35.691783 349.69442 36.024154 349.75462 36.38521 C 349.87498 36.445386 349.99521 36.654897 350.11556 37.015952 C 350.41644 37.677888 350.68698 38.430972 350.92768 39.273435 C 351.16839 40.115898 351.40886 40.867291 351.64957 41.529227 C 351.95042 42.07081 352.13078 42.64214 352.19098 43.243899 C 352.31133 43.845658 352.25121 44.448126 352.01051 45.049885 C 351.76981 45.531293 351.52933 45.983143 351.28862 46.404375 C 351.04792 46.825606 350.77739 47.275766 350.47651 47.757174 C 350.41633 47.877525 350.32615 47.998695 350.2058 48.119047 C 350.1456 48.239399 350.11556 48.358878 350.11556 48.47923 C 349.09257 50.10398 348.10061 51.70018 347.1378 53.264755 C 346.23516 54.829329 345.30106 56.423839 344.33824 58.048589 C 343.37543 59.853867 342.35341 61.62844 341.27024 63.373543 C 341.33039 63.493897 341.30036 63.583929 341.18 63.644102 C 341.1198 63.644102 341.08977 63.704687 341.08977 63.825039 C 340.84906 64.366623 340.54847 64.908505 340.18742 65.450089 C 339.88654 65.931496 339.79636 66.473379 339.91671 67.075138 C 339.91671 67.135314 339.97683 67.225346 340.09718 67.345698 C 340.21753 67.405871 340.21753 67.435321 340.09718 67.435321 L 340.18742 67.435321 L 340.27765 67.435321 C 340.398 67.555667 340.5483 67.585117 340.72883 67.524943 C 340.96953 67.464765 341.14989 67.495905 341.27024 67.616257 C 342.1127 67.495905 342.95436 67.55649 343.79683 67.797194 C 344.69947 67.977719 345.57345 68.007169 346.41591 67.886817 C 346.77697 67.706292 347.1978 67.645707 347.67921 67.70588 C 348.16061 67.70588 348.55139 67.615848 348.85227 67.435321 C 348.97262 67.435321 349.12292 67.374736 349.30345 67.254384 C 349.48397 67.134032 349.63427 67.075138 349.75462 67.075138 C 349.93515 66.714082 350.1155 66.442296 350.29603 66.261768 L 350.83745 65.539711 C 350.83745 65.41936 350.86748 65.358775 350.92768 65.358775 C 350.98788 65.298596 351.01792 65.239702 351.01792 65.179529 C 351.86038 63.795482 352.7043 62.410484 353.54676 61.026437 C 354.38923 59.582214 355.26095 58.167769 356.16359 56.783722 C 356.46444 56.663368 356.6448 56.694508 356.705 56.875036 C 356.88553 56.81486 356.97571 56.873754 356.97571 57.054282 C 357.03589 57.234813 357.15612 57.355982 357.33665 57.416156 L 357.87806 58.860268 C 358.05859 59.341676 358.23894 59.85242 358.41948 60.394004 C 358.96105 61.537347 359.44426 62.711143 359.8655 63.914662 C 360.28673 65.118181 360.8278 66.291978 361.48973 67.435321 C 361.67026 67.435321 361.85061 67.55649 362.03115 67.797194 C 362.21167 67.797194 362.39203 67.826644 362.57256 67.886817 C 362.75309 67.886817 362.93345 67.857367 363.11397 67.797194 C 363.23437 67.737018 363.26441 67.645295 363.20421 67.524943 C 363.20421 67.404592 363.23424 67.285113 363.29444 67.164761 C 363.23429 66.863881 363.17417 66.562647 363.11397 66.261768 C 363.05382 65.960888 362.9937 65.659654 362.9335 65.358775 C 363.0539 65.238423 363.08394 65.118944 363.02374 64.998592 C 362.96359 64.818064 362.99362 64.667447 363.11397 64.547095 C 363.29448 64.36657 363.41471 64.305985 363.47491 64.366159 C 363.77579 64.667038 363.98621 64.997719 364.10656 65.358775 C 364.28709 65.71983 364.43738 66.052202 364.55774 66.353082 C 364.79844 66.714137 365.06898 67.044818 365.36986 67.345698 C 365.73092 67.586399 366.12394 67.676431 366.54517 67.616257 C 367.26728 67.616257 367.95865 67.645707 368.62059 67.70588 C 369.28252 67.70588 370.00395 67.676431 370.78624 67.616257 C 370.90657 67.616257 370.99674 67.585117 371.05694 67.524943 C 371.17729 67.46477 371.29753 67.435321 371.41788 67.435321 L 371.50812 67.345698 C 371.62847 67.405874 371.74871 67.224119 371.86906 66.802887 C 371.98941 66.562183 371.98941 66.352673 371.86906 66.172145 C 371.74866 65.991617 371.71862 65.809862 371.77882 65.629334 C 370.57531 62.379834 369.49317 59.131921 368.53035 55.88242 C 367.98877 54.137318 367.47776 52.421639 366.99635 50.736712 C 366.57512 48.99161 366.12197 47.307069 365.64056 45.682319 C 365.52021 45.140735 365.39997 44.659438 365.27962 44.238206 C 365.15927 43.756799 365.15927 43.214916 365.27962 42.613157 C 366.30261 40.988406 367.35695 39.423344 368.44012 37.918946 C 369.58346 36.414547 370.69566 34.880623 371.77882 33.316048 C 374.78762 29.224084 377.91832 25.221396 381.16782 21.30996 C 381.40852 20.828553 381.73917 20.40784 382.16041 20.046785 C 382.64179 19.685729 382.91232 19.233878 382.97252 18.692295 C 382.85218 18.511767 382.73194 18.36115 382.61158 18.240798 C 382.5514 18.120447 382.46122 18.000968 382.34088 17.880616 L 382.34088 17.970239 C 381.97982 17.849884 381.61911 17.759852 381.25805 17.699679 C 380.95717 17.6395 380.65432 17.670641 380.35344 17.790993 C 380.29326 17.911345 380.20308 17.970239 380.08274 17.970239 C 379.78186 18.150767 379.51132 18.361968 379.27062 18.602672 C 379.09009 18.843376 378.81956 18.903961 378.4585 18.783609 C 378.2178 18.723433 378.03744 18.451646 377.91709 17.970239 C 377.55603 17.609183 377.19532 17.429119 376.83426 17.429119 z M 129.32987 18.692295 C 128.60776 18.752468 127.85628 18.813053 127.07399 18.873232 L 124.99857 18.873232 C 124.03576 18.933405 123.0716 18.962855 122.10878 18.962855 C 121.20614 18.962855 120.30436 18.993995 119.40172 19.054169 C 119.28138 19.234696 119.13108 19.295281 118.95055 19.235105 C 118.77002 19.174932 118.64978 19.264964 118.5896 19.505665 C 118.46925 19.445492 118.37907 19.506077 118.3189 19.686602 C 118.3189 19.806954 118.28886 19.896986 118.22866 19.957162 C 118.10831 20.438569 117.98807 20.949314 117.86772 21.490897 C 117.80752 21.972305 117.77749 22.48474 117.77749 23.026324 C 117.89784 23.327203 117.95796 23.716778 117.95796 24.198185 L 117.95796 25.463052 C 117.95796 25.824108 118.07819 26.094204 118.3189 26.274731 C 118.61978 26.455259 118.89032 26.605876 119.13102 26.726228 C 119.19122 26.786401 119.22125 26.907571 119.22125 27.088101 C 119.04072 27.388981 118.8303 27.537907 118.5896 27.537907 C 118.3489 27.718435 118.10842 27.869052 117.86772 27.989404 C 117.62701 28.049577 117.4166 28.231332 117.23607 28.532214 C 117.23607 28.772918 117.17596 29.043014 117.0556 29.343893 C 116.9954 29.584597 117.05552 29.825246 117.23607 30.065949 C 117.35643 30.366829 117.53679 30.578031 117.77749 30.698383 C 118.07836 30.758556 118.37896 30.758556 118.67984 30.698383 L 118.95055 30.87932 C 119.01075 30.819146 119.10092 30.758561 119.22125 30.698383 C 119.28145 30.818735 119.31149 30.848184 119.31149 30.788006 C 119.37169 30.727832 119.4318 30.758973 119.49196 30.87932 C 119.73266 30.819146 119.94307 30.819146 120.12361 30.87932 L 120.21384 30.788006 C 120.33419 30.848179 120.45443 30.848179 120.57478 30.788006 C 120.69513 30.727832 120.75525 30.758973 120.75525 30.87932 L 120.75525 30.788006 C 120.87561 30.727832 120.99584 30.727832 121.11619 30.788006 L 121.56737 30.788006 C 121.7479 30.788006 121.8982 30.96807 122.01855 31.329125 C 122.01855 31.630005 121.89831 31.870654 121.65761 32.051181 C 121.29655 32.111355 120.9659 32.17194 120.66502 32.232118 C 120.36414 32.232118 120.06354 32.292703 119.76266 32.413055 C 119.22108 32.774111 118.80025 33.315993 118.49937 34.038104 C 118.37902 35.061095 118.22872 36.053137 118.04819 37.015952 C 117.86766 37.978767 117.71737 38.941362 117.59701 39.904177 C 117.59701 39.964351 117.56698 39.995491 117.50678 39.995491 C 117.44658 39.995491 117.47661 40.024941 117.59701 40.085114 C 117.47667 40.44617 117.38649 40.866883 117.32631 41.34829 C 117.32631 41.769522 117.29627 42.160787 117.23607 42.521843 C 116.93519 43.123602 116.90516 43.72607 117.14584 44.327829 C 117.38654 44.929588 117.41658 45.561503 117.23607 46.223438 C 116.99537 48.028716 116.72258 49.863874 116.4217 51.729328 C 116.181 53.534607 115.97058 55.400903 115.79005 57.326533 C 115.79005 57.80794 115.72993 58.289238 115.60958 58.770645 C 115.48923 59.252053 115.42911 59.73335 115.42911 60.214758 C 115.30876 60.876693 115.21858 61.538055 115.1584 62.19999 C 115.0982 62.801749 115.06817 63.463111 115.06817 64.185222 C 115.00797 64.606453 114.94785 65.087751 114.8877 65.629334 C 114.8275 66.170918 114.97779 66.622768 115.33887 66.983824 C 115.63975 67.284704 116.03052 67.435321 116.51193 67.435321 C 116.93316 67.555672 117.35625 67.676842 117.77749 67.797194 C 118.25889 67.917546 118.70978 67.917546 119.13102 67.797194 L 119.13102 67.616257 C 119.4319 67.495905 119.64231 67.315842 119.76266 67.075138 L 120.12361 66.172145 C 120.24395 65.871265 120.30408 65.660063 120.30408 65.539711 C 120.36428 65.359184 120.45445 65.147982 120.57478 64.907278 C 120.87566 64.72675 121.08608 64.757891 121.20643 64.998592 C 121.32678 65.299472 121.3869 65.659599 121.3869 66.080831 C 121.3869 66.441887 121.44702 66.774258 121.56737 67.075138 C 121.62757 67.255666 121.74781 67.375145 121.92831 67.435321 L 122.46973 67.435321 C 122.71043 67.435321 122.92085 67.46477 123.10137 67.524943 C 123.2819 67.524943 123.46226 67.434912 123.64279 67.254384 C 123.70299 67.134032 123.79317 67.104582 123.91349 67.164761 C 124.03384 67.224934 124.03384 67.195484 123.91349 67.075138 L 124.00598 66.983824 L 123.91349 66.894201 L 124.09396 66.894201 C 124.15416 66.593321 124.18645 66.321535 124.18645 66.080831 C 124.18645 65.779951 124.24658 65.480409 124.36692 65.179529 C 124.42712 64.878649 124.48724 64.577415 124.5474 64.276536 C 124.6076 63.91548 124.63763 63.584799 124.63763 63.28392 C 125.05886 62.621984 125.35945 62.019517 125.53998 61.477934 C 125.90104 59.732831 126.23169 58.017152 126.53257 56.332226 C 126.83345 54.647299 127.22423 52.933311 127.70563 51.188209 C 127.76583 50.887329 127.79587 50.615543 127.79587 50.374839 C 127.79587 50.073959 127.91611 49.83331 128.15681 49.652783 C 128.51787 49.532431 128.72829 49.563571 128.78846 49.744096 C 129.87162 51.609551 130.8959 53.505294 131.85872 55.430924 C 132.82153 57.356554 133.72331 59.281744 134.56578 61.207374 C 134.80648 61.568429 135.0169 61.928557 135.19743 62.289613 C 135.37796 62.650668 135.61843 62.98304 135.91931 63.28392 C 136.34054 64.126383 136.73131 64.998946 137.09237 65.901585 C 137.45342 66.744048 137.81639 67.616611 138.17745 68.51925 L 138.53839 69.06037 C 138.71892 69.240898 138.9594 69.301483 139.26028 69.241307 L 140.07239 69.241307 C 140.37327 69.120955 140.52357 68.909753 140.52357 68.608873 C 140.52357 68.36817 140.64381 68.217553 140.88451 68.157377 C 141.24557 68.037025 141.57622 68.066475 141.8771 68.247 C 142.17798 68.487703 142.47858 68.669458 142.77946 68.78981 C 143.44139 68.669458 144.07264 68.548288 144.6744 68.427937 C 145.33634 68.367763 145.9999 68.277731 146.66183 68.157377 C 147.26359 67.976849 147.6243 67.616721 147.74466 67.075138 C 147.6243 66.172499 147.41389 65.268798 147.11301 64.366159 L 146.21066 61.65887 C 145.8496 60.274824 145.42651 58.889825 144.9451 57.505779 C 144.46369 56.061556 143.98274 54.648802 143.50134 53.264755 C 143.26064 52.60282 143.02016 51.970905 142.77946 51.369146 C 142.59893 50.707211 142.38851 50.044158 142.14781 49.382223 C 142.02745 49.021167 141.87716 48.66104 141.69663 48.299984 C 141.5161 47.938928 141.42592 47.57711 141.42592 47.216054 C 141.54628 47.035526 141.63646 46.855462 141.69663 46.674935 C 141.75683 46.494407 141.84701 46.34379 141.96734 46.223438 C 144.07349 44.71904 145.84926 42.79385 147.29348 40.446988 C 148.79788 38.100126 149.69966 35.601916 150.00054 32.954175 C 150.06074 31.3896 149.94051 29.945708 149.6396 28.621837 C 149.33872 27.23779 148.76759 25.913377 147.92513 24.649682 C 147.80478 24.589509 147.74466 24.499477 147.74466 24.379122 C 147.74466 24.25877 147.68454 24.168738 147.56419 24.108563 C 146.42085 22.36346 144.91562 21.160217 143.05016 20.498281 C 141.24488 19.836346 139.37894 19.355048 137.45331 19.054169 C 137.27279 19.114342 137.09243 19.083201 136.9119 18.962855 C 136.79155 18.842503 136.64125 18.842503 136.46072 18.962855 C 136.03949 18.902681 135.55854 18.873232 135.01696 18.873232 C 134.53554 18.873232 134.0546 18.843782 133.57319 18.783609 C 133.21214 18.843782 132.82136 18.843782 132.40013 18.783609 C 132.03908 18.723436 131.67836 18.752885 131.31731 18.873232 C 131.07661 18.75288 130.68358 18.692295 130.14199 18.692295 C 130.02164 18.692295 129.87134 18.723436 129.69081 18.783609 C 129.57046 18.843782 129.45022 18.812642 129.32987 18.692295 z M 316.80968 23.026324 C 317.23091 23.026324 317.44133 23.175249 317.44133 23.476129 C 317.44133 23.777009 317.29103 23.988211 316.99015 24.108563 C 316.74945 24.168736 316.53903 24.258768 316.3585 24.379122 C 315.99745 24.499474 315.75472 24.530615 315.63437 24.470436 C 315.39367 24.229732 315.36363 23.989084 315.54413 23.74838 C 315.66448 23.567852 315.84484 23.446682 316.08554 23.386506 L 316.80968 23.026324 z M 208.40089 29.841047 C 208.67168 29.841047 208.97227 29.854926 209.30324 29.885013 L 209.39348 29.885013 C 209.99523 30.005365 210.53856 30.187119 211.01997 30.427823 C 211.56155 30.608351 212.0425 30.907894 212.46373 31.329125 C 212.82477 31.569829 213.03518 31.781031 213.09538 31.961559 L 213.09538 32.142495 L 213.18562 32.142495 C 213.30597 32.082317 213.36609 32.111766 213.36609 32.232118 C 213.42627 32.352473 213.51645 32.442505 213.63679 32.502678 C 213.75713 32.62303 213.8473 32.773647 213.9075 32.954175 C 213.96767 33.134702 214.05785 33.316457 214.17821 33.496985 C 214.29856 33.737689 214.44886 34.037231 214.62938 34.398287 C 214.80991 34.759343 214.90009 35.090023 214.90009 35.390903 C 214.90009 35.451082 214.93013 35.511667 214.99033 35.57184 L 214.90009 35.663154 C 214.96029 35.783506 214.99033 35.902985 214.99033 36.023336 C 214.99033 36.083512 215.02036 36.173544 215.08056 36.293896 C 215.02036 36.354075 215.02036 36.41466 215.08056 36.474833 C 215.20091 36.535009 215.20091 36.625041 215.08056 36.745393 C 215.20096 36.805569 215.231 36.895601 215.1708 37.015952 C 215.11064 37.076128 215.14068 37.16616 215.26103 37.286512 L 215.26103 39.002875 C 215.26103 39.664811 215.231 40.23614 215.1708 40.717548 L 215.08056 41.349981 C 214.96021 42.372972 214.77985 43.365014 214.53915 44.327829 C 214.29845 45.290644 213.99785 46.284377 213.63679 47.307368 C 213.51645 47.307368 213.45632 47.366262 213.45632 47.486614 C 213.51652 47.546787 213.51652 47.577928 213.45632 47.577928 C 212.37315 50.346021 210.62745 52.601892 208.22042 54.346994 C 207.2576 55.129281 206.17546 55.790642 204.97194 56.332226 C 203.76842 56.873809 202.56379 57.145596 201.36027 57.145596 C 201.11956 57.145596 200.99933 56.994979 200.99933 56.694099 C 201.05953 56.573748 201.05953 56.452578 200.99933 56.332226 C 200.99933 56.211874 201.05945 56.092395 201.1798 55.972043 L 201.1798 55.88242 C 201.60103 53.776262 202.05192 51.698765 202.53333 49.652783 C 203.01474 47.606801 203.528 45.530994 204.06959 43.424836 C 204.18994 42.522197 204.34024 41.649634 204.52076 40.807171 C 204.76147 39.964707 205.032 39.092144 205.33288 38.189505 C 205.45328 38.069153 205.48332 37.949674 205.42312 37.829323 C 205.42312 37.708971 205.45315 37.587801 205.51335 37.467449 C 205.63371 36.986041 205.63371 36.535882 205.51335 36.11465 C 205.39301 35.693419 205.39301 35.271015 205.51335 34.849784 C 205.45315 34.729432 205.42312 34.578815 205.42312 34.398287 C 205.48332 34.217759 205.51335 34.067142 205.51335 33.946791 L 206.59618 30.607069 C 206.71653 30.426541 206.86683 30.246477 207.04736 30.065949 C 207.22788 29.885424 207.4383 29.824839 207.679 29.885013 C 207.88962 29.854926 208.13009 29.841047 208.40089 29.841047 z M 318.33692 29.86303 C 318.59643 29.863031 318.83991 29.930556 319.06557 30.065949 C 319.42662 30.246477 319.75728 30.397094 320.05816 30.517446 C 320.90062 30.998854 321.62205 31.630768 322.22381 32.413055 C 322.82556 33.195342 323.18854 34.067905 323.30889 35.03072 L 323.30663 35.03072 C 323.78804 37.55811 323.6678 40.025182 322.94569 42.43222 C 322.22358 44.839258 321.29174 47.155713 320.14839 49.382223 C 319.48646 50.645918 318.67485 51.909746 317.71204 53.173441 C 316.8094 54.37696 315.66489 55.220076 314.28084 55.701483 C 313.3782 56.182891 312.35617 56.392402 311.21283 56.332226 C 310.06949 56.211874 309.13539 55.822299 308.41328 55.160364 C 307.81152 54.739132 307.33057 54.19725 306.96951 53.535315 C 306.60846 52.813203 306.36798 52.150151 306.24763 51.548392 C 306.12728 51.12716 306.0371 50.645863 305.97692 50.104279 C 305.91672 49.50252 305.94676 49.021222 306.06716 48.660167 L 305.97692 48.570544 C 306.03712 48.450192 306.06716 48.270128 306.06716 48.029424 C 306.06716 47.78872 306.12728 47.548072 306.24763 47.307368 C 306.18743 47.187016 306.15739 47.036399 306.15739 46.855871 C 306.21759 46.615168 306.27771 46.403966 306.33787 46.223438 C 306.51839 45.441151 306.69874 44.689758 306.87928 43.967646 C 307.0598 43.245535 307.33034 42.553036 307.6914 41.8911 C 307.6914 41.650397 307.81163 41.409748 308.05234 41.169044 L 308.14257 41.07773 L 308.05234 40.988107 C 308.17269 40.867756 308.26287 40.746586 308.32304 40.626234 C 308.38324 40.445706 308.47342 40.29678 308.59375 40.176428 C 308.83446 39.695021 309.13731 39.24317 309.49836 38.821939 C 309.85942 38.340531 310.19007 37.859234 310.49095 37.377826 C 310.67148 37.257474 310.82177 37.07741 310.94213 36.836707 C 311.12265 36.596003 311.33307 36.414248 311.57377 36.293896 C 312.41624 35.451433 313.2579 34.760625 314.10036 34.219041 C 315.003 33.617282 316.05734 33.165431 317.26086 32.864552 C 317.86262 32.623848 318.16321 32.232582 318.16321 31.690999 L 318.16321 31.329125 C 318.22341 31.208773 318.22341 31.179324 318.16321 31.239502 C 318.10301 30.998799 318.0429 30.787597 317.98274 30.607069 C 317.92254 30.366365 317.95258 30.125716 318.07298 29.885013 C 318.16324 29.869969 318.25041 29.863029 318.33692 29.86303 z M 275.55857 30.336509 C 275.79928 30.336509 276.03975 30.367647 276.28046 30.427823 L 276.73163 30.427823 C 277.27322 30.668527 277.75417 30.999208 278.1754 31.420439 C 278.65681 31.841671 278.92735 32.413 278.98752 33.135111 L 278.98752 33.676231 L 278.89728 33.676231 C 278.89728 33.916935 278.83717 34.218168 278.71681 34.579224 C 278.65661 34.880104 278.53638 35.120752 278.35587 35.30128 C 278.41607 35.541984 278.35595 35.782633 278.1754 36.023336 C 278.05505 36.203864 277.93481 36.383928 277.81446 36.564456 C 277.51358 36.865336 277.18293 37.197707 276.82187 37.558763 C 276.46082 37.859643 276.07004 38.159185 275.64881 38.460065 C 275.52846 38.520238 275.43828 38.551379 275.3781 38.551379 C 275.3781 38.491206 275.31799 38.520655 275.19763 38.641002 L 275.19763 38.551379 C 275.13743 38.671731 274.89696 38.79121 274.47575 38.911561 C 274.41555 38.911561 274.35543 38.942702 274.29528 39.002875 C 274.29528 39.063049 274.26524 39.092498 274.20504 39.092498 C 273.90416 39.21285 273.57126 39.273435 273.2102 39.273435 C 272.90932 39.213262 272.57866 39.213262 272.21761 39.273435 C 272.21761 39.213262 272.18757 39.213262 272.12737 39.273435 C 272.06717 39.333608 271.977 39.333608 271.85667 39.273435 C 271.91687 39.092907 271.88683 39.032322 271.76643 39.092498 C 271.64608 39.092498 271.58596 39.031913 271.58596 38.911561 C 271.46561 38.369978 271.49564 37.859234 271.6762 37.377826 C 271.9169 36.896419 272.09726 36.415121 272.21761 35.933714 C 272.33796 35.452306 272.42814 35.029902 272.48831 34.668847 C 272.60867 34.247615 272.75897 33.826903 272.93949 33.405671 L 272.93949 33.045488 C 272.99969 32.864961 273.05981 32.714344 273.11996 32.593992 C 273.24032 32.413464 273.30043 32.202262 273.30043 31.961559 L 273.30043 32.051181 C 273.36063 31.870654 273.42075 31.69059 273.4809 31.510062 C 273.5411 31.329534 273.60123 31.178917 273.66137 31.058565 C 273.96225 30.757686 274.35528 30.548175 274.83669 30.427823 C 275.07739 30.367647 275.31787 30.336509 275.55857 30.336509 z M 270.05196 30.427823 C 270.35284 30.427823 270.56325 30.547302 270.68361 30.788006 C 270.74381 30.908358 270.71377 31.058974 270.59337 31.239502 C 270.47302 31.42003 270.4129 31.570647 270.4129 31.690999 C 270.4129 31.811351 270.38287 31.93083 270.32267 32.051181 C 270.26247 32.111355 270.26247 32.203078 270.32267 32.323432 C 270.08196 32.383605 269.93166 32.593116 269.87149 32.954175 C 269.87149 33.255054 269.69114 33.286195 269.33008 33.045488 C 269.14955 32.864961 269.14955 32.683206 269.33008 32.502678 C 269.39028 32.382326 269.39028 32.292294 269.33008 32.232118 L 269.33008 31.961559 C 269.45043 31.660679 269.51055 31.359445 269.51055 31.058565 C 269.57075 30.757686 269.75111 30.548175 270.05196 30.427823 z M 133.57319 30.698383 C 133.75372 30.758556 134.02425 30.788006 134.38531 30.788006 C 134.68619 30.908358 134.92667 30.99839 135.10719 31.058565 C 135.3479 31.118739 135.61843 31.239909 135.91931 31.420439 C 136.03966 31.540791 136.18995 31.66027 136.37049 31.780622 C 136.61119 31.900974 136.79155 32.05159 136.9119 32.232118 C 137.57383 33.074581 137.87443 33.947145 137.81425 34.849784 C 137.81425 35.752423 137.57378 36.624986 137.09237 37.467449 C 136.73131 38.309912 136.16018 39.062996 135.3779 39.724932 C 134.65579 40.326691 133.9043 40.868573 133.12201 41.349981 C 132.76096 41.530509 132.40025 41.679435 132.03919 41.799787 C 131.67814 41.85996 131.28511 41.951683 130.86387 42.072037 C 130.74352 42.011864 130.5331 41.920141 130.23222 41.799787 C 129.99152 41.619259 129.9314 41.37861 130.05175 41.07773 C 130.35263 40.235267 130.56306 39.454427 130.6834 38.732316 C 130.80375 38.010204 131.01643 37.227673 131.31731 36.38521 C 131.43766 35.783451 131.58796 35.151536 131.76848 34.489601 C 132.00919 33.827666 132.2196 33.195751 132.40013 32.593992 C 132.40013 32.353288 132.43017 32.142086 132.49037 31.961559 C 132.61072 31.720855 132.67084 31.480206 132.67084 31.239502 C 132.91154 30.878447 133.21214 30.698383 133.57319 30.698383 z M 129.60058 31.149879 C 129.60058 31.270231 129.63061 31.299681 129.69081 31.239502 C 129.81117 31.11915 129.87128 31.1486 129.87128 31.329125 C 129.87128 31.449477 129.90132 31.5412 129.96152 31.601376 C 130.02172 31.661549 129.99168 31.751581 129.87128 31.871936 C 129.99164 32.172815 129.8714 32.532943 129.51034 32.954175 C 129.57054 33.074526 129.54051 33.164558 129.42011 33.224734 C 129.29975 33.284908 129.29975 33.37663 129.42011 33.496985 L 129.05916 33.857168 C 128.99896 33.796994 128.93885 33.796994 128.87869 33.857168 C 128.87869 33.917341 128.84866 33.917341 128.78846 33.857168 C 128.60793 33.857168 128.51775 33.737689 128.51775 33.496985 C 128.63811 33.135929 128.66814 32.744664 128.60799 32.323432 C 128.60799 31.842025 128.8184 31.480206 129.23964 31.239502 L 129.23964 31.329125 L 129.32987 31.329125 C 129.32987 31.208773 129.35991 31.179324 129.42011 31.239502 C 129.48031 31.299676 129.54042 31.270226 129.60058 31.149879 z M 271.49573 46.493998 C 272.15766 46.493998 272.81896 46.615168 273.4809 46.855871 C 274.20301 47.036399 274.74634 47.427665 275.1074 48.029424 C 275.5888 48.871887 275.76916 49.803344 275.64881 50.826335 C 275.52846 51.849326 275.22786 52.782474 274.74646 53.624938 C 274.3854 54.046169 274.05475 54.466882 273.75387 54.888113 C 273.45299 55.249169 273.05996 55.581541 272.57855 55.88242 C 272.4582 56.002772 272.33796 56.092804 272.21761 56.15298 C 272.09726 56.213153 272.00708 56.303185 271.9469 56.42354 C 271.52567 56.664243 271.25514 56.754275 271.13478 56.694099 C 271.13478 56.814451 271.07467 56.875036 270.95431 56.875036 L 270.86408 56.875036 C 270.80388 56.814863 270.74376 56.844313 270.68361 56.964659 C 270.62341 57.085011 270.59337 57.085011 270.59337 56.964659 C 270.53317 56.904486 270.47305 56.904486 270.4129 56.964659 C 270.23237 57.024832 270.05202 57.085417 269.87149 57.145596 C 269.75114 57.205769 269.57078 57.235219 269.33008 57.235219 L 269.33008 57.054282 C 269.20972 57.174634 269.11954 57.235219 269.05937 57.235219 L 268.96913 57.145596 L 268.60819 57.054282 L 268.42772 57.054282 C 268.42772 56.994109 268.3676 56.964659 268.24725 56.964659 C 267.8862 56.964659 267.70584 56.814042 267.70584 56.513163 C 267.58549 56.573336 267.52537 56.573336 267.52537 56.513163 C 267.58557 56.392811 267.58557 56.302779 267.52537 56.242603 C 267.76607 54.978908 268.00655 53.715079 268.24725 52.451385 C 268.54813 51.18769 268.81866 49.894414 269.05937 48.570544 C 269.17972 48.390016 269.2699 48.178814 269.33008 47.93811 C 269.39028 47.637231 269.48046 47.42772 269.60078 47.307368 C 269.60078 47.247195 269.63082 47.155472 269.69102 47.035117 C 269.81137 46.914765 269.93161 46.855871 270.05196 46.855871 L 270.05196 46.764558 L 270.14219 46.855871 C 270.26255 46.675344 270.47296 46.614759 270.77384 46.674935 C 271.07472 46.674935 271.3152 46.61435 271.49573 46.493998 z "
     style="fill:#000000" /></g></svg>
